<?xml version="1.0" encoding="utf-8"?>
<svg xmlns="http://www.w3.org/2000/svg" xmlns:bx="https://boxy-svg.com" viewBox="0 0 950 500">
  <defs>
    <bx:grid x="0" y="0" width="25" height="25"/>
  </defs>
  <rect x="12.226" y="12.005" width="924.818" height="462.995" style="fill: rgb(216, 216, 216); stroke: rgb(0, 0, 0);"/>
  <rect x="25" y="75" width="900" height="375" style="stroke: rgb(0, 0, 0); fill: rgb(255, 255, 255);"/>
  <rect x="50" y="100.548" width="100.168" height="25.136" style="stroke: rgb(0, 0, 0); fill: rgb(120, 231, 228); stroke-width: 0.693;"/>
  <rect x="50" y="125" width="100.168" height="50" style="stroke: rgb(0, 0, 0); stroke-width: 0.693; fill: rgb(244, 248, 248);"/>
  <ellipse style="fill: rgb(216, 216, 216); stroke: rgb(0, 0, 0); stroke-width: 0.693;" cx="125.124" cy="137.355" rx="11.269" ry="10.987"/>
  <g transform="matrix(1.116151, 0, 0, 1.116686, -10.678418, 46.611243)" style="">
    <path style="fill: rgb(204, 204, 204); stroke-width: 1;" d="M 166.356 47.81 L 278.348 47.81 L 278.348 114.973 L 166.356 114.973 L 166.356 47.81 Z"/>
    <path style="fill: rgb(199, 199, 199); stroke-width: 1;" d="M 166.356 95.477 L 278.348 67.396 L 278.348 114.973 L 166.356 114.973 L 166.356 95.477 Z"/>
    <path style="fill: rgb(194, 194, 194); stroke-width: 1;" d="M 166.356 98.16 L 278.348 70.258 L 278.348 114.973 L 166.356 114.973 L 166.356 98.16 Z"/>
    <path style="fill: rgb(189, 189, 189); stroke-width: 1;" d="M 166.356 102.453 L 278.348 74.371 L 278.348 114.973 L 166.356 114.973 L 166.356 102.453 Z"/>
    <path style="fill: rgb(204, 204, 204); stroke-width: 1;" d="M 168.486 49.688 L 276.106 49.688 L 276.106 109.249 L 168.486 109.249 L 168.486 49.688 Z"/>
    <path style="fill: rgb(199, 199, 199); stroke-width: 1;" d="M 222.296 91.9 L 276.106 67.038 L 276.106 109.249 L 222.296 109.249 L 222.296 91.9 Z"/>
    <path style="fill: rgb(199, 199, 199); stroke-width: 1;" d="M 168.486 92.079 L 222.296 67.038 L 222.296 109.249 L 168.486 109.249 L 168.486 92.079 Z"/>
    <path style="fill: rgb(194, 194, 194); stroke-width: 1;" d="M 222.296 94.583 L 276.106 69.542 L 276.106 109.249 L 222.296 109.249 L 222.296 94.583 Z"/>
    <path style="fill: rgb(194, 194, 194); stroke-width: 1;" d="M 168.486 94.583 L 222.296 69.542 L 222.296 109.249 L 168.486 109.249 L 168.486 94.583 Z"/>
    <path style="fill: rgb(189, 189, 189); stroke-width: 1;" d="M 222.296 98.16 L 276.106 73.298 L 276.106 109.249 L 222.296 109.249 L 222.296 98.16 Z"/>
    <path style="fill: rgb(189, 189, 189); stroke-width: 1;" d="M 168.486 98.16 L 222.296 73.298 L 222.296 109.249 L 168.486 109.249 L 168.486 98.16 Z"/>
    <path style="fill: none; stroke: rgb(76, 76, 76); stroke-width: 2;" d="M 166.356 47.81 L 278.348 47.81 L 278.348 114.973 L 166.356 114.973 L 166.356 47.81"/>
    <path style="fill: none; stroke: rgb(127, 127, 127); stroke-width: 2;" d="M 222.296 49.688 L 276.106 49.688 L 276.106 109.249 L 222.296 109.249 L 222.296 49.688"/>
    <path style="fill: rgb(153, 153, 153); stroke-width: 1;" d="M 240.906 110.323 L 259.739 110.323 L 259.739 113.9 L 240.906 113.9 L 240.906 110.323 Z"/>
    <path style="fill: rgb(76, 76, 76); stroke-width: 1;" d="M 169.607 108.713 L 169.159 108.176 L 169.607 107.64 L 170.504 107.64 L 170.952 108.176 L 170.504 108.713 L 169.607 108.713 Z"/>
    <path style="fill: rgb(76, 76, 76); stroke-width: 1;" d="M 169.607 68.111 L 169.159 67.575 L 169.607 66.859 L 170.504 66.859 L 170.952 67.575 L 170.504 68.111 L 169.607 68.111 Z"/>
    <path style="fill: none; stroke: rgb(127, 127, 127); stroke-width: 2;" d="M 168.486 49.688 L 222.296 49.688 L 222.296 109.249 L 168.486 109.249 L 168.486 49.688"/>
    <path style="fill: rgb(229, 229, 229); stroke-width: 1;" d="M 229.247 51.119 L 235.749 51.119 L 235.749 59.973 L 229.247 59.973 L 229.247 51.119 Z"/>
    <path style="fill: rgb(0, 0, 0); stroke-width: 1;" d="M 224.762 51.119 L 226.332 51.119 L 226.332 55.233 L 224.762 55.233 L 224.762 51.119 Z"/>
    <path style="fill: rgb(0, 0, 0); stroke-width: 1;" d="M 272.519 51.119 L 274.313 51.119 L 274.313 55.233 L 272.519 55.233 L 272.519 51.119 Z"/>
    <path style="fill: rgb(51, 51, 51); stroke: rgb(76, 76, 76); stroke-width: 2;" d="M 168.486 49.688 L 222.296 49.688 L 222.296 66.501 L 168.486 66.501 L 168.486 49.688 Z"/>
    <path style="fill: rgb(229, 229, 229); stroke-width: 1;" d="M 185.526 60.778 L 192.028 60.778 L 192.028 63.103 L 185.526 63.103 L 185.526 60.778 Z"/>
    <path style="fill: rgb(178, 178, 178); stroke-width: 1;" d="M 200.324 62.745 L 198.978 61.672 L 198.978 60.152 L 200.324 59.079 L 202.117 59.079 L 203.687 60.152 L 203.687 61.672 L 202.117 62.745 L 200.324 62.745 Z"/>
    <path style="fill: rgb(178, 178, 178); stroke-width: 1;" d="M 207.947 62.745 L 206.602 61.672 L 206.602 60.152 L 207.947 59.079 L 209.74 59.079 L 211.086 60.152 L 211.086 61.672 L 209.74 62.745 L 207.947 62.745 Z"/>
    <path style="fill: rgb(102, 102, 102); stroke-width: 1;" d="M 176.109 60.778 L 182.611 60.778 L 182.611 63.103 L 176.109 63.103 L 176.109 60.778 Z"/>
    <path style="fill: none; stroke: rgb(76, 76, 76); stroke-width: 2;" d="M 179.024 54.339 L 179.024 59.079 L 176.782 59.079"/>
    <path style="fill: none; stroke: rgb(76, 76, 76); stroke-width: 2;" d="M 183.06 54.339 L 183.06 59.079 L 180.93 59.079"/>
    <path style="fill: none; stroke: rgb(76, 76, 76); stroke-width: 2;" d="M 187.32 54.339 L 187.32 59.079 L 184.853 59.079"/>
    <path style="fill: none; stroke: rgb(76, 76, 76); stroke-width: 2;" d="M 191.355 54.339 L 191.355 59.079 L 188.889 59.079"/>
    <path style="fill: none; stroke: rgb(127, 127, 127); stroke-width: 2;" d="M 188.889 59.079 L 188.889 54.339 L 191.355 54.339"/>
    <path style="fill: none; stroke: rgb(127, 127, 127); stroke-width: 2;" d="M 184.853 59.079 L 184.853 54.339 L 187.32 54.339"/>
    <path style="fill: none; stroke: rgb(127, 127, 127); stroke-width: 2;" d="M 180.93 59.079 L 180.93 54.339 L 183.06 54.339"/>
    <path style="fill: none; stroke: rgb(127, 127, 127); stroke-width: 2;" d="M 176.782 59.079 L 176.782 54.339 L 179.024 54.339"/>
    <path style="fill: rgb(127, 127, 127); stroke-width: 1;" d="M 197.857 66.859 L 222.296 104.241 L 222.296 94.404 L 204.135 66.859 L 197.857 66.859 Z"/>
    <path style="fill: rgb(102, 102, 102); stroke-width: 1;" d="M 204.135 66.859 L 222.296 94.404 L 222.296 84.566 L 210.637 66.859 L 204.135 66.859 Z"/>
    <path style="fill: rgb(76, 76, 76); stroke-width: 1;" d="M 210.637 66.859 L 222.296 84.566 L 222.296 74.729 L 217.139 66.859 L 210.637 66.859 Z"/>
    <path style="fill: none; stroke: rgb(255, 255, 255); stroke-width: 2;" d="M 222.969 50.046 L 275.434 50.046"/>
  </g>
  <g transform="matrix(1.13391, 0, 0, 1.234446, -9.410634, 162.99009)" style="">
    <path style="fill: rgb(0, 0, 0); stroke-width: 1;" d="M 363.181 109.151 L 363.181 110.989 L 460.721 110.989 L 469.183 107.313 L 469.183 105.958 L 460.721 109.151 L 363.181 109.151 Z"/>
    <path style="fill: rgb(115, 135, 166); stroke: rgb(76, 76, 76); stroke-width: 2;" d="M 361.061 109.151 L 361.061 53.909 L 462.836 53.909 L 462.836 109.151 L 361.061 109.151 Z"/>
    <path style="fill: rgb(166, 186, 217); stroke: rgb(76, 76, 76); stroke-width: 2;" d="M 445.801 105.475 L 445.801 57.586 L 454.374 57.586 L 454.374 105.475 L 445.801 105.475 Z"/>
    <path style="fill: rgb(166, 186, 217); stroke: rgb(76, 76, 76); stroke-width: 2;" d="M 433.101 105.475 L 433.101 57.586 L 441.571 57.586 L 441.571 105.475 L 433.101 105.475 Z"/>
    <path style="fill: rgb(166, 186, 217); stroke: rgb(76, 76, 76); stroke-width: 2;" d="M 420.411 105.475 L 420.411 57.586 L 428.871 57.586 L 428.871 105.475 L 420.411 105.475 Z"/>
    <path style="fill: rgb(166, 186, 217); stroke: rgb(76, 76, 76); stroke-width: 2;" d="M 407.721 105.475 L 407.721 57.586 L 416.181 57.586 L 416.181 105.475 L 407.721 105.475 Z"/>
    <path style="fill: rgb(166, 186, 217); stroke: rgb(76, 76, 76); stroke-width: 2;" d="M 395.021 105.475 L 395.021 57.586 L 403.481 57.586 L 403.481 105.475 L 395.021 105.475 Z"/>
    <path style="fill: rgb(166, 186, 217); stroke: rgb(76, 76, 76); stroke-width: 2;" d="M 382.221 105.475 L 382.221 57.586 L 390.791 57.586 L 390.791 105.475 L 382.221 105.475 Z"/>
    <path style="fill: rgb(166, 186, 217); stroke: rgb(76, 76, 76); stroke-width: 2;" d="M 369.521 105.475 L 369.521 57.586 L 377.991 57.586 L 377.991 105.475 L 369.521 105.475 Z"/>
    <path style="fill: rgb(0, 0, 0); stroke-width: 1;" d="M 371.641 81.579 L 371.641 76.064 L 375.871 76.064 L 375.871 81.579 L 371.641 81.579 Z"/>
    <path style="fill: rgb(0, 0, 0); stroke-width: 1;" d="M 371.531 94.446 L 371.531 88.931 L 375.871 88.931 L 375.871 94.446 L 371.531 94.446 Z"/>
    <path style="fill: rgb(0, 0, 0); stroke-width: 1;" d="M 371.641 87.093 L 371.641 83.417 L 375.981 83.417 L 375.981 87.093 L 371.641 87.093 Z"/>
    <path style="fill: rgb(0, 0, 0); stroke-width: 1;" d="M 371.641 99.96 L 371.641 96.284 L 375.871 96.284 L 375.871 99.96 L 371.641 99.96 Z"/>
    <path style="fill: rgb(0, 0, 0); stroke-width: 1;" d="M 384.331 81.579 L 384.331 76.064 L 388.561 76.064 L 388.561 81.579 L 384.331 81.579 Z"/>
    <path style="fill: rgb(0, 0, 0); stroke-width: 1;" d="M 384.331 94.446 L 384.331 88.931 L 388.561 88.931 L 388.561 94.446 L 384.331 94.446 Z"/>
    <path style="fill: rgb(0, 0, 0); stroke-width: 1;" d="M 384.331 87.093 L 384.331 83.417 L 388.671 83.417 L 388.671 87.093 L 384.331 87.093 Z"/>
    <path style="fill: rgb(0, 0, 0); stroke-width: 1;" d="M 384.331 99.96 L 384.331 96.284 L 388.561 96.284 L 388.561 99.96 L 384.331 99.96 Z"/>
    <path style="fill: rgb(0, 0, 0); stroke-width: 1;" d="M 397.031 81.579 L 397.031 76.064 L 401.371 76.064 L 401.371 81.579 L 397.031 81.579 Z"/>
    <path style="fill: rgb(0, 0, 0); stroke-width: 1;" d="M 397.031 94.446 L 397.031 88.931 L 401.261 88.931 L 401.261 94.446 L 397.031 94.446 Z"/>
    <path style="fill: rgb(0, 0, 0); stroke-width: 1;" d="M 397.141 87.093 L 397.141 83.417 L 401.371 83.417 L 401.371 87.093 L 397.141 87.093 Z"/>
    <path style="fill: rgb(0, 0, 0); stroke-width: 1;" d="M 397.031 99.96 L 397.031 96.284 L 401.371 96.284 L 401.371 99.96 L 397.031 99.96 Z"/>
    <path style="fill: rgb(0, 0, 0); stroke-width: 1;" d="M 385.451 105.475 L 385.451 101.798 L 387.561 101.798 L 387.561 105.475 L 385.451 105.475 Z"/>
    <path style="fill: rgb(0, 0, 0); stroke-width: 1;" d="M 372.751 105.475 L 372.751 101.798 L 374.871 101.798 L 374.871 105.475 L 372.751 105.475 Z"/>
    <path style="fill: rgb(0, 0, 0); stroke-width: 1;" d="M 372.751 61.262 L 372.751 57.586 L 374.871 57.586 L 374.871 61.262 L 372.751 61.262 Z"/>
    <path style="fill: rgb(0, 0, 0); stroke-width: 1;" d="M 385.451 61.262 L 385.451 57.586 L 387.561 57.586 L 387.561 61.262 L 385.451 61.262 Z"/>
    <path style="fill: rgb(0, 0, 0); stroke-width: 1;" d="M 398.141 61.262 L 398.141 57.586 L 400.261 57.586 L 400.261 61.262 L 398.141 61.262 Z"/>
    <path style="fill: rgb(0, 0, 0); stroke-width: 1;" d="M 398.141 105.475 L 398.141 101.798 L 400.261 101.798 L 400.261 105.475 L 398.141 105.475 Z"/>
    <path style="fill: rgb(0, 0, 0); stroke-width: 1;" d="M 449.031 80.611 L 451.141 80.611 L 451.141 82.449 L 449.031 82.449 L 449.031 80.611 Z"/>
    <path style="fill: rgb(0, 0, 0); stroke-width: 1;" d="M 449.031 76.935 L 451.141 76.935 L 451.141 78.87 L 449.031 78.87 L 449.031 76.935 Z"/>
    <path style="fill: rgb(0, 0, 0); stroke-width: 1;" d="M 449.031 84.287 L 451.141 84.287 L 451.141 86.126 L 449.031 86.126 L 449.031 84.287 Z"/>
    <path style="fill: rgb(0, 0, 0); stroke-width: 1;" d="M 449.031 73.258 L 451.141 73.258 L 451.141 75.097 L 449.031 75.097 L 449.031 73.258 Z"/>
    <path style="fill: rgb(0, 0, 0); stroke-width: 1;" d="M 449.031 87.964 L 451.141 87.964 L 451.141 89.802 L 449.031 89.802 L 449.031 87.964 Z"/>
    <path style="fill: rgb(0, 0, 0); stroke-width: 1;" d="M 449.031 69.582 L 451.141 69.582 L 451.141 71.42 L 449.031 71.42 L 449.031 69.582 Z"/>
    <path style="fill: rgb(0, 0, 0); stroke-width: 1;" d="M 449.031 91.64 L 451.141 91.64 L 451.141 93.478 L 449.031 93.478 L 449.031 91.64 Z"/>
    <path style="fill: rgb(0, 0, 0); stroke-width: 1;" d="M 436.331 80.611 L 438.451 80.611 L 438.451 82.449 L 436.331 82.449 L 436.331 80.611 Z"/>
    <path style="fill: rgb(0, 0, 0); stroke-width: 1;" d="M 436.331 76.935 L 438.451 76.935 L 438.451 78.87 L 436.331 78.87 L 436.331 76.935 Z"/>
    <path style="fill: rgb(0, 0, 0); stroke-width: 1;" d="M 436.331 84.287 L 438.451 84.287 L 438.451 86.126 L 436.331 86.126 L 436.331 84.287 Z"/>
    <path style="fill: rgb(0, 0, 0); stroke-width: 1;" d="M 436.331 73.258 L 438.451 73.258 L 438.451 75.097 L 436.331 75.097 L 436.331 73.258 Z"/>
    <path style="fill: rgb(0, 0, 0); stroke-width: 1;" d="M 436.331 87.964 L 438.451 87.964 L 438.451 89.802 L 436.331 89.802 L 436.331 87.964 Z"/>
    <path style="fill: rgb(0, 0, 0); stroke-width: 1;" d="M 436.331 69.582 L 438.451 69.582 L 438.451 71.42 L 436.331 71.42 L 436.331 69.582 Z"/>
    <path style="fill: rgb(0, 0, 0); stroke-width: 1;" d="M 436.331 91.64 L 438.451 91.64 L 438.451 93.478 L 436.331 93.478 L 436.331 91.64 Z"/>
    <path style="fill: rgb(89, 109, 140); stroke: rgb(76, 76, 76); stroke-width: 2;" d="M 462.836 53.909 L 471.299 50.233 L 471.299 105.475 L 462.836 109.151 L 462.836 53.909 Z"/>
    <path style="fill: rgb(191, 211, 242); stroke: rgb(76, 76, 76); stroke-width: 2;" d="M 462.836 53.909 L 471.299 50.233 L 369.521 50.233 L 361.061 53.909 L 462.836 53.909 Z"/>
  </g>
  <text style="fill: rgb(51, 51, 51); font-family: Bahnschrift; font-size: 12px; white-space: pre;" x="56" y="116.982">COMPRESSOR A</text>
  <rect x="50" y="150" width="100" height="25" style="fill: rgb(216, 216, 216); stroke: rgb(0, 0, 0);"/>
  <text style="fill: rgb(51, 51, 51); font-family: Bahnschrift; font-size: 15px; white-space: pre; stroke-width: 1;" x="56.368" y="141.716">On/Off</text>
  <text style="fill: rgb(51, 51, 51); font-family: Bahnschrift; font-size: 15px; white-space: pre; stroke-width: 1;" x="120.949" y="168.123">H</text>
  <text style="fill: rgb(51, 51, 51); font-family: Bahnschrift; font-size: 15px; white-space: pre; stroke-width: 1;" x="56.007" y="167.208">####</text>
  <rect x="49.832" y="225.548" width="100.168" height="25.136" style="stroke: rgb(0, 0, 0); fill: rgb(120, 231, 228); stroke-width: 0.693;"/>
  <rect x="49.832" y="250" width="100.168" height="50" style="stroke: rgb(0, 0, 0); stroke-width: 0.693; fill: rgb(244, 248, 248);"/>
  <ellipse style="fill: rgb(216, 216, 216); stroke: rgb(0, 0, 0); stroke-width: 0.693;" cx="124.956" cy="262.355" rx="11.269" ry="10.987"/>
  <text style="fill: rgb(51, 51, 51); font-family: Bahnschrift; font-size: 12px; white-space: pre; stroke-width: 1;" x="55.832" y="241.982">COMPRESSOR B</text>
  <rect x="49.832" y="275" width="100" height="25" style="fill: rgb(216, 216, 216); stroke: rgb(0, 0, 0); stroke-width: 1;"/>
  <text style="fill: rgb(51, 51, 51); font-family: Bahnschrift; font-size: 15px; white-space: pre; stroke-width: 1;" x="56.2" y="266.716">On/Off</text>
  <text style="fill: rgb(51, 51, 51); font-family: Bahnschrift; font-size: 15px; white-space: pre; stroke-width: 1;" x="120.781" y="293.123">H</text>
  <text style="fill: rgb(51, 51, 51); font-family: Bahnschrift; font-size: 15px; white-space: pre; stroke-width: 1;" x="55.839" y="292.208">####</text>
  <rect x="49.832" y="350.548" width="100.168" height="25.136" style="stroke: rgb(0, 0, 0); fill: rgb(120, 231, 228); stroke-width: 0.693;"/>
  <rect x="49.832" y="375" width="100.168" height="50" style="stroke: rgb(0, 0, 0); stroke-width: 0.693; fill: rgb(244, 248, 248);"/>
  <ellipse style="fill: rgb(216, 216, 216); stroke: rgb(0, 0, 0); stroke-width: 0.693;" cx="124.956" cy="387.355" rx="11.269" ry="10.987"/>
  <text style="fill: rgb(51, 51, 51); font-family: Bahnschrift; font-size: 12px; white-space: pre; stroke-width: 1;" x="55.832" y="366.982">COMPRESSOR C</text>
  <rect x="49.832" y="400" width="100" height="25" style="fill: rgb(216, 216, 216); stroke: rgb(0, 0, 0); stroke-width: 1;"/>
  <text style="fill: rgb(51, 51, 51); font-family: Bahnschrift; font-size: 15px; white-space: pre; stroke-width: 1;" x="56.2" y="391.716">On/Off</text>
  <text style="fill: rgb(51, 51, 51); font-family: Bahnschrift; font-size: 15px; white-space: pre; stroke-width: 1;" x="120.781" y="418.123">H</text>
  <text style="fill: rgb(51, 51, 51); font-family: Bahnschrift; font-size: 15px; white-space: pre; stroke-width: 1;" x="55.839" y="417.208">####</text>
  <g transform="matrix(1.116151, 0, 0, 1.116686, -10.678391, 171.611261)" style="">
    <path style="fill: rgb(204, 204, 204); stroke-width: 1;" d="M 166.356 47.81 L 278.348 47.81 L 278.348 114.973 L 166.356 114.973 L 166.356 47.81 Z"/>
    <path style="fill: rgb(199, 199, 199); stroke-width: 1;" d="M 166.356 95.477 L 278.348 67.396 L 278.348 114.973 L 166.356 114.973 L 166.356 95.477 Z"/>
    <path style="fill: rgb(194, 194, 194); stroke-width: 1;" d="M 166.356 98.16 L 278.348 70.258 L 278.348 114.973 L 166.356 114.973 L 166.356 98.16 Z"/>
    <path style="fill: rgb(189, 189, 189); stroke-width: 1;" d="M 166.356 102.453 L 278.348 74.371 L 278.348 114.973 L 166.356 114.973 L 166.356 102.453 Z"/>
    <path style="fill: rgb(204, 204, 204); stroke-width: 1;" d="M 168.486 49.688 L 276.106 49.688 L 276.106 109.249 L 168.486 109.249 L 168.486 49.688 Z"/>
    <path style="fill: rgb(199, 199, 199); stroke-width: 1;" d="M 222.296 91.9 L 276.106 67.038 L 276.106 109.249 L 222.296 109.249 L 222.296 91.9 Z"/>
    <path style="fill: rgb(199, 199, 199); stroke-width: 1;" d="M 168.486 92.079 L 222.296 67.038 L 222.296 109.249 L 168.486 109.249 L 168.486 92.079 Z"/>
    <path style="fill: rgb(194, 194, 194); stroke-width: 1;" d="M 222.296 94.583 L 276.106 69.542 L 276.106 109.249 L 222.296 109.249 L 222.296 94.583 Z"/>
    <path style="fill: rgb(194, 194, 194); stroke-width: 1;" d="M 168.486 94.583 L 222.296 69.542 L 222.296 109.249 L 168.486 109.249 L 168.486 94.583 Z"/>
    <path style="fill: rgb(189, 189, 189); stroke-width: 1;" d="M 222.296 98.16 L 276.106 73.298 L 276.106 109.249 L 222.296 109.249 L 222.296 98.16 Z"/>
    <path style="fill: rgb(189, 189, 189); stroke-width: 1;" d="M 168.486 98.16 L 222.296 73.298 L 222.296 109.249 L 168.486 109.249 L 168.486 98.16 Z"/>
    <path style="fill: none; stroke: rgb(76, 76, 76); stroke-width: 2;" d="M 166.356 47.81 L 278.348 47.81 L 278.348 114.973 L 166.356 114.973 L 166.356 47.81"/>
    <path style="fill: none; stroke: rgb(127, 127, 127); stroke-width: 2;" d="M 222.296 49.688 L 276.106 49.688 L 276.106 109.249 L 222.296 109.249 L 222.296 49.688"/>
    <path style="fill: rgb(153, 153, 153); stroke-width: 1;" d="M 240.906 110.323 L 259.739 110.323 L 259.739 113.9 L 240.906 113.9 L 240.906 110.323 Z"/>
    <path style="fill: rgb(76, 76, 76); stroke-width: 1;" d="M 169.607 108.713 L 169.159 108.176 L 169.607 107.64 L 170.504 107.64 L 170.952 108.176 L 170.504 108.713 L 169.607 108.713 Z"/>
    <path style="fill: rgb(76, 76, 76); stroke-width: 1;" d="M 169.607 68.111 L 169.159 67.575 L 169.607 66.859 L 170.504 66.859 L 170.952 67.575 L 170.504 68.111 L 169.607 68.111 Z"/>
    <path style="fill: none; stroke: rgb(127, 127, 127); stroke-width: 2;" d="M 168.486 49.688 L 222.296 49.688 L 222.296 109.249 L 168.486 109.249 L 168.486 49.688"/>
    <path style="fill: rgb(229, 229, 229); stroke-width: 1;" d="M 229.247 51.119 L 235.749 51.119 L 235.749 59.973 L 229.247 59.973 L 229.247 51.119 Z"/>
    <path style="fill: rgb(0, 0, 0); stroke-width: 1;" d="M 224.762 51.119 L 226.332 51.119 L 226.332 55.233 L 224.762 55.233 L 224.762 51.119 Z"/>
    <path style="fill: rgb(0, 0, 0); stroke-width: 1;" d="M 272.519 51.119 L 274.313 51.119 L 274.313 55.233 L 272.519 55.233 L 272.519 51.119 Z"/>
    <path style="fill: rgb(51, 51, 51); stroke: rgb(76, 76, 76); stroke-width: 2;" d="M 168.486 49.688 L 222.296 49.688 L 222.296 66.501 L 168.486 66.501 L 168.486 49.688 Z"/>
    <path style="fill: rgb(229, 229, 229); stroke-width: 1;" d="M 185.526 60.778 L 192.028 60.778 L 192.028 63.103 L 185.526 63.103 L 185.526 60.778 Z"/>
    <path style="fill: rgb(178, 178, 178); stroke-width: 1;" d="M 200.324 62.745 L 198.978 61.672 L 198.978 60.152 L 200.324 59.079 L 202.117 59.079 L 203.687 60.152 L 203.687 61.672 L 202.117 62.745 L 200.324 62.745 Z"/>
    <path style="fill: rgb(178, 178, 178); stroke-width: 1;" d="M 207.947 62.745 L 206.602 61.672 L 206.602 60.152 L 207.947 59.079 L 209.74 59.079 L 211.086 60.152 L 211.086 61.672 L 209.74 62.745 L 207.947 62.745 Z"/>
    <path style="fill: rgb(102, 102, 102); stroke-width: 1;" d="M 176.109 60.778 L 182.611 60.778 L 182.611 63.103 L 176.109 63.103 L 176.109 60.778 Z"/>
    <path style="fill: none; stroke: rgb(76, 76, 76); stroke-width: 2;" d="M 179.024 54.339 L 179.024 59.079 L 176.782 59.079"/>
    <path style="fill: none; stroke: rgb(76, 76, 76); stroke-width: 2;" d="M 183.06 54.339 L 183.06 59.079 L 180.93 59.079"/>
    <path style="fill: none; stroke: rgb(76, 76, 76); stroke-width: 2;" d="M 187.32 54.339 L 187.32 59.079 L 184.853 59.079"/>
    <path style="fill: none; stroke: rgb(76, 76, 76); stroke-width: 2;" d="M 191.355 54.339 L 191.355 59.079 L 188.889 59.079"/>
    <path style="fill: none; stroke: rgb(127, 127, 127); stroke-width: 2;" d="M 188.889 59.079 L 188.889 54.339 L 191.355 54.339"/>
    <path style="fill: none; stroke: rgb(127, 127, 127); stroke-width: 2;" d="M 184.853 59.079 L 184.853 54.339 L 187.32 54.339"/>
    <path style="fill: none; stroke: rgb(127, 127, 127); stroke-width: 2;" d="M 180.93 59.079 L 180.93 54.339 L 183.06 54.339"/>
    <path style="fill: none; stroke: rgb(127, 127, 127); stroke-width: 2;" d="M 176.782 59.079 L 176.782 54.339 L 179.024 54.339"/>
    <path style="fill: rgb(127, 127, 127); stroke-width: 1;" d="M 197.857 66.859 L 222.296 104.241 L 222.296 94.404 L 204.135 66.859 L 197.857 66.859 Z"/>
    <path style="fill: rgb(102, 102, 102); stroke-width: 1;" d="M 204.135 66.859 L 222.296 94.404 L 222.296 84.566 L 210.637 66.859 L 204.135 66.859 Z"/>
    <path style="fill: rgb(76, 76, 76); stroke-width: 1;" d="M 210.637 66.859 L 222.296 84.566 L 222.296 74.729 L 217.139 66.859 L 210.637 66.859 Z"/>
    <path style="fill: none; stroke: rgb(255, 255, 255); stroke-width: 2;" d="M 222.969 50.046 L 275.434 50.046"/>
  </g>
  <g transform="matrix(1.116151, 0, 0, 1.116686, -10.678387, 296.611283)" style="">
    <path style="fill: rgb(204, 204, 204); stroke-width: 1;" d="M 166.356 47.81 L 278.348 47.81 L 278.348 114.973 L 166.356 114.973 L 166.356 47.81 Z"/>
    <path style="fill: rgb(199, 199, 199); stroke-width: 1;" d="M 166.356 95.477 L 278.348 67.396 L 278.348 114.973 L 166.356 114.973 L 166.356 95.477 Z"/>
    <path style="fill: rgb(194, 194, 194); stroke-width: 1;" d="M 166.356 98.16 L 278.348 70.258 L 278.348 114.973 L 166.356 114.973 L 166.356 98.16 Z"/>
    <path style="fill: rgb(189, 189, 189); stroke-width: 1;" d="M 166.356 102.453 L 278.348 74.371 L 278.348 114.973 L 166.356 114.973 L 166.356 102.453 Z"/>
    <path style="fill: rgb(204, 204, 204); stroke-width: 1;" d="M 168.486 49.688 L 276.106 49.688 L 276.106 109.249 L 168.486 109.249 L 168.486 49.688 Z"/>
    <path style="fill: rgb(199, 199, 199); stroke-width: 1;" d="M 222.296 91.9 L 276.106 67.038 L 276.106 109.249 L 222.296 109.249 L 222.296 91.9 Z"/>
    <path style="fill: rgb(199, 199, 199); stroke-width: 1;" d="M 168.486 92.079 L 222.296 67.038 L 222.296 109.249 L 168.486 109.249 L 168.486 92.079 Z"/>
    <path style="fill: rgb(194, 194, 194); stroke-width: 1;" d="M 222.296 94.583 L 276.106 69.542 L 276.106 109.249 L 222.296 109.249 L 222.296 94.583 Z"/>
    <path style="fill: rgb(194, 194, 194); stroke-width: 1;" d="M 168.486 94.583 L 222.296 69.542 L 222.296 109.249 L 168.486 109.249 L 168.486 94.583 Z"/>
    <path style="fill: rgb(189, 189, 189); stroke-width: 1;" d="M 222.296 98.16 L 276.106 73.298 L 276.106 109.249 L 222.296 109.249 L 222.296 98.16 Z"/>
    <path style="fill: rgb(189, 189, 189); stroke-width: 1;" d="M 168.486 98.16 L 222.296 73.298 L 222.296 109.249 L 168.486 109.249 L 168.486 98.16 Z"/>
    <path style="fill: none; stroke: rgb(76, 76, 76); stroke-width: 2;" d="M 166.356 47.81 L 278.348 47.81 L 278.348 114.973 L 166.356 114.973 L 166.356 47.81"/>
    <path style="fill: none; stroke: rgb(127, 127, 127); stroke-width: 2;" d="M 222.296 49.688 L 276.106 49.688 L 276.106 109.249 L 222.296 109.249 L 222.296 49.688"/>
    <path style="fill: rgb(153, 153, 153); stroke-width: 1;" d="M 240.906 110.323 L 259.739 110.323 L 259.739 113.9 L 240.906 113.9 L 240.906 110.323 Z"/>
    <path style="fill: rgb(76, 76, 76); stroke-width: 1;" d="M 169.607 108.713 L 169.159 108.176 L 169.607 107.64 L 170.504 107.64 L 170.952 108.176 L 170.504 108.713 L 169.607 108.713 Z"/>
    <path style="fill: rgb(76, 76, 76); stroke-width: 1;" d="M 169.607 68.111 L 169.159 67.575 L 169.607 66.859 L 170.504 66.859 L 170.952 67.575 L 170.504 68.111 L 169.607 68.111 Z"/>
    <path style="fill: none; stroke: rgb(127, 127, 127); stroke-width: 2;" d="M 168.486 49.688 L 222.296 49.688 L 222.296 109.249 L 168.486 109.249 L 168.486 49.688"/>
    <path style="fill: rgb(229, 229, 229); stroke-width: 1;" d="M 229.247 51.119 L 235.749 51.119 L 235.749 59.973 L 229.247 59.973 L 229.247 51.119 Z"/>
    <path style="fill: rgb(0, 0, 0); stroke-width: 1;" d="M 224.762 51.119 L 226.332 51.119 L 226.332 55.233 L 224.762 55.233 L 224.762 51.119 Z"/>
    <path style="fill: rgb(0, 0, 0); stroke-width: 1;" d="M 272.519 51.119 L 274.313 51.119 L 274.313 55.233 L 272.519 55.233 L 272.519 51.119 Z"/>
    <path style="fill: rgb(51, 51, 51); stroke: rgb(76, 76, 76); stroke-width: 2;" d="M 168.486 49.688 L 222.296 49.688 L 222.296 66.501 L 168.486 66.501 L 168.486 49.688 Z"/>
    <path style="fill: rgb(229, 229, 229); stroke-width: 1;" d="M 185.526 60.778 L 192.028 60.778 L 192.028 63.103 L 185.526 63.103 L 185.526 60.778 Z"/>
    <path style="fill: rgb(178, 178, 178); stroke-width: 1;" d="M 200.324 62.745 L 198.978 61.672 L 198.978 60.152 L 200.324 59.079 L 202.117 59.079 L 203.687 60.152 L 203.687 61.672 L 202.117 62.745 L 200.324 62.745 Z"/>
    <path style="fill: rgb(178, 178, 178); stroke-width: 1;" d="M 207.947 62.745 L 206.602 61.672 L 206.602 60.152 L 207.947 59.079 L 209.74 59.079 L 211.086 60.152 L 211.086 61.672 L 209.74 62.745 L 207.947 62.745 Z"/>
    <path style="fill: rgb(102, 102, 102); stroke-width: 1;" d="M 176.109 60.778 L 182.611 60.778 L 182.611 63.103 L 176.109 63.103 L 176.109 60.778 Z"/>
    <path style="fill: none; stroke: rgb(76, 76, 76); stroke-width: 2;" d="M 179.024 54.339 L 179.024 59.079 L 176.782 59.079"/>
    <path style="fill: none; stroke: rgb(76, 76, 76); stroke-width: 2;" d="M 183.06 54.339 L 183.06 59.079 L 180.93 59.079"/>
    <path style="fill: none; stroke: rgb(76, 76, 76); stroke-width: 2;" d="M 187.32 54.339 L 187.32 59.079 L 184.853 59.079"/>
    <path style="fill: none; stroke: rgb(76, 76, 76); stroke-width: 2;" d="M 191.355 54.339 L 191.355 59.079 L 188.889 59.079"/>
    <path style="fill: none; stroke: rgb(127, 127, 127); stroke-width: 2;" d="M 188.889 59.079 L 188.889 54.339 L 191.355 54.339"/>
    <path style="fill: none; stroke: rgb(127, 127, 127); stroke-width: 2;" d="M 184.853 59.079 L 184.853 54.339 L 187.32 54.339"/>
    <path style="fill: none; stroke: rgb(127, 127, 127); stroke-width: 2;" d="M 180.93 59.079 L 180.93 54.339 L 183.06 54.339"/>
    <path style="fill: none; stroke: rgb(127, 127, 127); stroke-width: 2;" d="M 176.782 59.079 L 176.782 54.339 L 179.024 54.339"/>
    <path style="fill: rgb(127, 127, 127); stroke-width: 1;" d="M 197.857 66.859 L 222.296 104.241 L 222.296 94.404 L 204.135 66.859 L 197.857 66.859 Z"/>
    <path style="fill: rgb(102, 102, 102); stroke-width: 1;" d="M 204.135 66.859 L 222.296 94.404 L 222.296 84.566 L 210.637 66.859 L 204.135 66.859 Z"/>
    <path style="fill: rgb(76, 76, 76); stroke-width: 1;" d="M 210.637 66.859 L 222.296 84.566 L 222.296 74.729 L 217.139 66.859 L 210.637 66.859 Z"/>
    <path style="fill: none; stroke: rgb(255, 255, 255); stroke-width: 2;" d="M 222.969 50.046 L 275.434 50.046"/>
  </g>
  <path style="fill: none; stroke-width: 1.386; stroke-dasharray: 6, 4; stroke: rgb(0, 4, 255);" d="M 300 125 L 350 125 L 350 275 L 400 275"/>
  <path style="fill: none; stroke-width: 1.386; stroke-dasharray: 6, 4; stroke: rgb(0, 4, 255);" d="M 300 250 L 350 250 L 350 275 L 400 275"/>
  <path style="fill: none; stroke-width: 1.386; stroke-dasharray: 6, 4; stroke: rgb(0, 4, 255);" d="M 300 375 L 350 375 L 350 275 L 400 275"/>
  <g transform="matrix(1, 0, 0, 1, 49.999999, -99.999998)" style="">
    <path style="fill: rgb(255, 255, 255); stroke: rgb(76, 76, 76); stroke-width: 2;" d="M 717.857 292.93 L 717.857 292.651 L 717.857 292.442 L 717.857 292.163 L 717.857 291.954 L 717.857 291.744 L 717.857 291.535 L 717.857 291.396 L 717.914 291.186 L 717.914 291.046 L 717.972 290.907 L 718.029 290.837 L 718.086 290.698 L 718.143 290.558 L 718.201 290.488 L 718.258 290.419 L 718.372 290.349 L 718.487 290.279 L 718.602 290.209 L 718.716 290.14 L 718.888 290.14 L 719.06 290.07 L 719.231 290.07 L 719.46 290 L 719.632 290 L 719.919 290 L 720.147 290 L 720.434 290 L 720.72 290 L 721.063 290 L 721.407 290 L 721.751 290 L 722.151 290 L 770.706 290 L 771.106 290 L 771.45 290 L 771.794 290 L 772.137 290 L 772.423 290 L 772.71 290 L 772.939 290 L 773.225 290 L 773.397 290.07 L 773.626 290.07 L 773.798 290.14 L 773.969 290.14 L 774.141 290.209 L 774.256 290.279 L 774.37 290.349 L 774.485 290.419 L 774.599 290.488 L 774.657 290.558 L 774.714 290.698 L 774.771 290.837 L 774.828 290.977 L 774.886 291.117 L 774.943 291.256 L 774.943 291.465 L 775 291.674 L 775 291.884 L 775 292.093 L 775 292.303 L 775 292.581 L 775 292.86 L 775 293.209 L 775 293.488 L 775 335.558 L 775 335.907 L 775 336.256 L 775 336.604 L 775 336.884 L 775 337.163 L 775 337.442 L 775 337.72 L 775 337.93 L 774.943 338.14 L 774.943 338.349 L 774.943 338.488 L 774.886 338.628 L 774.886 338.767 L 774.828 338.907 L 774.771 339.047 L 774.714 339.117 L 774.657 339.256 L 774.599 339.326 L 774.485 339.396 L 774.427 339.465 L 774.313 339.465 L 774.198 339.535 L 774.084 339.535 L 773.969 339.604 L 773.798 339.604 L 773.683 339.604 L 773.511 339.604 L 773.339 339.674 L 773.168 339.674 L 772.939 339.674 L 772.71 339.674 L 772.481 339.674 L 721.579 339.674 L 721.235 339.674 L 720.892 339.674 L 720.663 339.674 L 720.377 339.674 L 720.09 339.604 L 719.861 339.604 L 719.69 339.604 L 719.46 339.604 L 719.289 339.535 L 719.117 339.535 L 718.945 339.465 L 718.831 339.465 L 718.659 339.396 L 718.544 339.326 L 718.43 339.256 L 718.372 339.117 L 718.258 339.047 L 718.201 338.907 L 718.143 338.767 L 718.086 338.628 L 718.029 338.488 L 717.972 338.349 L 717.914 338.14 L 717.914 337.93 L 717.914 337.72 L 717.857 337.442 L 717.857 337.163 L 717.857 336.884 L 717.857 336.604 L 717.857 336.256 L 717.857 335.907 L 717.857 335.558 L 717.857 292.93 Z"/>
    <path style="fill: rgb(255, 255, 255); stroke: rgb(76, 76, 76); stroke-width: 2;" d="M 732.114 339.674 L 760.743 339.674 L 760.743 342.884 L 732.114 342.884 L 732.114 339.674 Z"/>
    <path style="fill: rgb(67, 67, 67); stroke: rgb(76, 76, 76); stroke-width: 2;" d="M 722.151 299.419 L 722.151 299.07 L 722.151 298.791 L 722.151 298.442 L 722.151 298.163 L 722.151 297.954 L 722.151 297.675 L 722.209 297.465 L 722.209 297.256 L 722.209 297.046 L 722.266 296.837 L 722.323 296.698 L 722.323 296.558 L 722.381 296.419 L 722.495 296.279 L 722.553 296.209 L 722.61 296.07 L 722.725 296 L 722.838 295.93 L 722.953 295.86 L 723.067 295.791 L 723.239 295.791 L 723.354 295.721 L 723.526 295.721 L 723.754 295.651 L 723.926 295.651 L 724.155 295.651 L 724.385 295.651 L 724.671 295.651 L 724.9 295.651 L 725.243 295.651 L 725.53 295.651 L 725.873 295.651 L 767.557 295.651 L 767.843 295.651 L 768.129 295.651 L 768.358 295.651 L 768.587 295.651 L 768.816 295.651 L 769.045 295.721 L 769.217 295.721 L 769.389 295.791 L 769.561 295.791 L 769.675 295.86 L 769.79 295.86 L 769.962 295.93 L 770.076 296 L 770.133 296.07 L 770.247 296.139 L 770.305 296.209 L 770.362 296.349 L 770.419 296.419 L 770.477 296.558 L 770.534 296.698 L 770.591 296.837 L 770.591 296.907 L 770.649 297.046 L 770.649 297.256 L 770.649 297.396 L 770.706 297.604 L 770.706 297.744 L 770.706 297.954 L 770.706 298.163 L 770.706 298.442 L 770.706 298.651 L 770.706 298.861 L 770.706 327.744 L 770.706 328.093 L 770.706 328.372 L 770.706 328.581 L 770.706 328.861 L 770.763 329.07 L 770.763 329.279 L 770.763 329.488 L 770.763 329.628 L 770.763 329.838 L 770.763 329.977 L 770.706 330.117 L 770.706 330.186 L 770.649 330.326 L 770.649 330.465 L 770.591 330.535 L 770.534 330.604 L 770.477 330.674 L 770.419 330.744 L 770.305 330.814 L 770.19 330.883 L 770.076 330.883 L 769.962 330.883 L 769.79 330.953 L 769.618 330.953 L 769.446 330.953 L 769.274 331.023 L 769.045 331.023 L 768.759 331.023 L 768.53 331.023 L 768.244 331.023 L 767.9 331.023 L 767.557 331.023 L 725.873 331.023 L 725.53 331.023 L 725.243 331.023 L 724.9 331.023 L 724.671 331.023 L 724.385 331.023 L 724.155 331.023 L 723.926 331.023 L 723.754 331.023 L 723.526 331.023 L 723.354 331.023 L 723.239 331.023 L 723.067 330.953 L 722.953 330.953 L 722.838 330.883 L 722.725 330.814 L 722.61 330.744 L 722.553 330.674 L 722.495 330.604 L 722.381 330.465 L 722.323 330.326 L 722.323 330.186 L 722.266 330.046 L 722.209 329.838 L 722.209 329.628 L 722.209 329.419 L 722.151 329.209 L 722.151 328.93 L 722.151 328.651 L 722.151 328.302 L 722.151 327.954 L 722.151 327.604 L 722.151 327.186 L 722.151 299.419 Z"/>
    <path style="fill: rgb(255, 255, 255); stroke: rgb(76, 76, 76); stroke-width: 2;" d="M 717.857 350 L 775 350 L 775 347.558 L 760.743 342.884 L 732.114 342.884 L 717.857 347.558 L 717.857 350 Z"/>
    <path style="fill: rgb(255, 255, 255); stroke: rgb(76, 76, 76); stroke-width: 2;" d="M 770.133 334.023 L 770.133 337.512 L 756.391 337.512 L 756.391 334.023 L 770.133 334.023 Z"/>
    <path style="fill: none; stroke: rgb(76, 76, 76); stroke-width: 2;" d="M 717.857 347.558 L 775 347.558"/>
    <path style="fill: rgb(255, 255, 255); stroke: rgb(76, 76, 76); stroke-width: 2;" d="M 675 285.361 L 703.571 285.361 L 703.571 350 L 675 350 L 675 285.361 Z"/>
    <path style="fill: rgb(255, 255, 255); stroke: rgb(76, 76, 76); stroke-width: 2;" d="M 677.317 287.463 L 701.169 287.463 L 701.169 350 L 677.317 350 L 677.317 287.463 Z"/>
    <path style="fill: rgb(255, 255, 255); stroke: rgb(76, 76, 76); stroke-width: 2;" d="M 677.317 290.616 L 701.169 290.616 L 701.169 297.898 L 677.317 297.898 L 677.317 290.616 Z"/>
    <path style="fill: rgb(255, 255, 255); stroke: rgb(76, 76, 76); stroke-width: 2;" d="M 677.317 297.898 L 701.169 297.898 L 701.169 305.181 L 677.317 305.181 L 677.317 297.898 Z"/>
    <path style="fill: rgb(0, 0, 0); stroke: rgb(76, 76, 76); stroke-width: 2;" d="M 679.72 293.694 L 698.767 293.694 L 698.767 294.745 L 679.72 294.745 L 679.72 293.694 Z"/>
    <path style="fill: rgb(0, 0, 0); stroke: rgb(76, 76, 76); stroke-width: 2;" d="M 679.72 300 L 698.767 300 L 698.767 303.078 L 679.72 303.078 L 679.72 300 Z"/>
    <path style="fill: rgb(255, 255, 255); stroke: rgb(76, 76, 76); stroke-width: 2;" d="M 679.72 275 L 698.767 275 L 703.571 285.361 L 675 285.361 L 679.72 275 Z"/>
    <path style="fill: rgb(255, 255, 255); stroke: rgb(76, 76, 76); stroke-width: 2;" d="M 695.163 300 L 701.169 300 L 701.169 303.078 L 695.163 303.078 L 695.163 300 Z"/>
    <path style="fill: rgb(255, 255, 255); stroke: rgb(76, 76, 76); stroke-width: 2;" d="M 697.566 300 L 698.767 300 L 698.767 303.078 L 697.566 303.078 L 697.566 300 Z"/>
    <path style="fill: rgb(255, 255, 255); stroke: rgb(76, 76, 76); stroke-width: 2;" d="M 697.566 291.592 L 692.847 291.592 L 692.847 292.643 L 697.566 292.643 L 697.566 291.592 Z"/>
    <circle style="fill: rgb(255, 255, 255); stroke: rgb(76, 76, 76); stroke-width: 2;" cx="890.673" cy="114.148" r="1.051" transform="matrix(1.142857, 0, 0, 1.000013, -320.346635, 178.493448)"/>
  </g>
  <path style="fill: none; stroke-width: 1.386; stroke-dasharray: 6, 4; stroke: rgb(6, 255, 0);" d="M 525 250 L 575 250 L 575 200 L 725 200"/>
  <path style="fill: none; stroke-width: 1.386; stroke-dasharray: 6, 4; stroke: rgb(6, 255, 0);" d="M 525 250 L 575 250 L 575 375 L 725 375"/>
  <rect x="399.832" y="149.864" width="125.168" height="25.136" style="stroke: rgb(0, 0, 0); fill: rgb(120, 231, 228); stroke-width: 0.693;"/>
  <rect x="400" y="175" width="125" height="25" style="fill: rgb(216, 216, 216); stroke: rgb(0, 0, 0); stroke-width: 1;"/>
  <text style="fill: rgb(51, 51, 51); font-family: Bahnschrift; font-size: 12px; white-space: pre; stroke-width: 1;" x="417.352" y="167.628">PLC Compressor</text>
  <text style="fill: rgb(51, 51, 51); font-family: Bahnschrift; font-size: 12px; white-space: pre; stroke-width: 1;" x="426.101" y="192.839">IP : 192.168.0.1</text>
  <rect x="725" y="99.864" width="125.168" height="25.136" style="stroke: rgb(0, 0, 0); fill: rgb(120, 231, 228); stroke-width: 0.693;"/>
  <rect x="725.168" y="125" width="125" height="25" style="fill: rgb(216, 216, 216); stroke: rgb(0, 0, 0); stroke-width: 1;"/>
  <text style="fill: rgb(51, 51, 51); font-family: Bahnschrift; font-size: 12px; white-space: pre; stroke-width: 1;" x="759.52" y="117.628">PC Station</text>
  <text style="fill: rgb(51, 51, 51); font-family: Bahnschrift; font-size: 12px; white-space: pre; stroke-width: 1;" x="751.269" y="142.839">IP : 192.168.0.2</text>
  <g transform="matrix(1, 0, 0, 1, 49.999999, 74.999996)" style="">
    <path style="fill: rgb(255, 255, 255); stroke: rgb(76, 76, 76); stroke-width: 2;" d="M 717.857 292.93 L 717.857 292.651 L 717.857 292.442 L 717.857 292.163 L 717.857 291.954 L 717.857 291.744 L 717.857 291.535 L 717.857 291.396 L 717.914 291.186 L 717.914 291.046 L 717.972 290.907 L 718.029 290.837 L 718.086 290.698 L 718.143 290.558 L 718.201 290.488 L 718.258 290.419 L 718.372 290.349 L 718.487 290.279 L 718.602 290.209 L 718.716 290.14 L 718.888 290.14 L 719.06 290.07 L 719.231 290.07 L 719.46 290 L 719.632 290 L 719.919 290 L 720.147 290 L 720.434 290 L 720.72 290 L 721.063 290 L 721.407 290 L 721.751 290 L 722.151 290 L 770.706 290 L 771.106 290 L 771.45 290 L 771.794 290 L 772.137 290 L 772.423 290 L 772.71 290 L 772.939 290 L 773.225 290 L 773.397 290.07 L 773.626 290.07 L 773.798 290.14 L 773.969 290.14 L 774.141 290.209 L 774.256 290.279 L 774.37 290.349 L 774.485 290.419 L 774.599 290.488 L 774.657 290.558 L 774.714 290.698 L 774.771 290.837 L 774.828 290.977 L 774.886 291.117 L 774.943 291.256 L 774.943 291.465 L 775 291.674 L 775 291.884 L 775 292.093 L 775 292.303 L 775 292.581 L 775 292.86 L 775 293.209 L 775 293.488 L 775 335.558 L 775 335.907 L 775 336.256 L 775 336.604 L 775 336.884 L 775 337.163 L 775 337.442 L 775 337.72 L 775 337.93 L 774.943 338.14 L 774.943 338.349 L 774.943 338.488 L 774.886 338.628 L 774.886 338.767 L 774.828 338.907 L 774.771 339.047 L 774.714 339.117 L 774.657 339.256 L 774.599 339.326 L 774.485 339.396 L 774.427 339.465 L 774.313 339.465 L 774.198 339.535 L 774.084 339.535 L 773.969 339.604 L 773.798 339.604 L 773.683 339.604 L 773.511 339.604 L 773.339 339.674 L 773.168 339.674 L 772.939 339.674 L 772.71 339.674 L 772.481 339.674 L 721.579 339.674 L 721.235 339.674 L 720.892 339.674 L 720.663 339.674 L 720.377 339.674 L 720.09 339.604 L 719.861 339.604 L 719.69 339.604 L 719.46 339.604 L 719.289 339.535 L 719.117 339.535 L 718.945 339.465 L 718.831 339.465 L 718.659 339.396 L 718.544 339.326 L 718.43 339.256 L 718.372 339.117 L 718.258 339.047 L 718.201 338.907 L 718.143 338.767 L 718.086 338.628 L 718.029 338.488 L 717.972 338.349 L 717.914 338.14 L 717.914 337.93 L 717.914 337.72 L 717.857 337.442 L 717.857 337.163 L 717.857 336.884 L 717.857 336.604 L 717.857 336.256 L 717.857 335.907 L 717.857 335.558 L 717.857 292.93 Z"/>
    <path style="fill: rgb(255, 255, 255); stroke: rgb(76, 76, 76); stroke-width: 2;" d="M 732.114 339.674 L 760.743 339.674 L 760.743 342.884 L 732.114 342.884 L 732.114 339.674 Z"/>
    <path style="fill: rgb(67, 67, 67); stroke: rgb(76, 76, 76); stroke-width: 2;" d="M 722.151 299.419 L 722.151 299.07 L 722.151 298.791 L 722.151 298.442 L 722.151 298.163 L 722.151 297.954 L 722.151 297.675 L 722.209 297.465 L 722.209 297.256 L 722.209 297.046 L 722.266 296.837 L 722.323 296.698 L 722.323 296.558 L 722.381 296.419 L 722.495 296.279 L 722.553 296.209 L 722.61 296.07 L 722.725 296 L 722.838 295.93 L 722.953 295.86 L 723.067 295.791 L 723.239 295.791 L 723.354 295.721 L 723.526 295.721 L 723.754 295.651 L 723.926 295.651 L 724.155 295.651 L 724.385 295.651 L 724.671 295.651 L 724.9 295.651 L 725.243 295.651 L 725.53 295.651 L 725.873 295.651 L 767.557 295.651 L 767.843 295.651 L 768.129 295.651 L 768.358 295.651 L 768.587 295.651 L 768.816 295.651 L 769.045 295.721 L 769.217 295.721 L 769.389 295.791 L 769.561 295.791 L 769.675 295.86 L 769.79 295.86 L 769.962 295.93 L 770.076 296 L 770.133 296.07 L 770.247 296.139 L 770.305 296.209 L 770.362 296.349 L 770.419 296.419 L 770.477 296.558 L 770.534 296.698 L 770.591 296.837 L 770.591 296.907 L 770.649 297.046 L 770.649 297.256 L 770.649 297.396 L 770.706 297.604 L 770.706 297.744 L 770.706 297.954 L 770.706 298.163 L 770.706 298.442 L 770.706 298.651 L 770.706 298.861 L 770.706 327.744 L 770.706 328.093 L 770.706 328.372 L 770.706 328.581 L 770.706 328.861 L 770.763 329.07 L 770.763 329.279 L 770.763 329.488 L 770.763 329.628 L 770.763 329.838 L 770.763 329.977 L 770.706 330.117 L 770.706 330.186 L 770.649 330.326 L 770.649 330.465 L 770.591 330.535 L 770.534 330.604 L 770.477 330.674 L 770.419 330.744 L 770.305 330.814 L 770.19 330.883 L 770.076 330.883 L 769.962 330.883 L 769.79 330.953 L 769.618 330.953 L 769.446 330.953 L 769.274 331.023 L 769.045 331.023 L 768.759 331.023 L 768.53 331.023 L 768.244 331.023 L 767.9 331.023 L 767.557 331.023 L 725.873 331.023 L 725.53 331.023 L 725.243 331.023 L 724.9 331.023 L 724.671 331.023 L 724.385 331.023 L 724.155 331.023 L 723.926 331.023 L 723.754 331.023 L 723.526 331.023 L 723.354 331.023 L 723.239 331.023 L 723.067 330.953 L 722.953 330.953 L 722.838 330.883 L 722.725 330.814 L 722.61 330.744 L 722.553 330.674 L 722.495 330.604 L 722.381 330.465 L 722.323 330.326 L 722.323 330.186 L 722.266 330.046 L 722.209 329.838 L 722.209 329.628 L 722.209 329.419 L 722.151 329.209 L 722.151 328.93 L 722.151 328.651 L 722.151 328.302 L 722.151 327.954 L 722.151 327.604 L 722.151 327.186 L 722.151 299.419 Z"/>
    <path style="fill: rgb(255, 255, 255); stroke: rgb(76, 76, 76); stroke-width: 2;" d="M 717.857 350 L 775 350 L 775 347.558 L 760.743 342.884 L 732.114 342.884 L 717.857 347.558 L 717.857 350 Z"/>
    <path style="fill: rgb(255, 255, 255); stroke: rgb(76, 76, 76); stroke-width: 2;" d="M 770.133 334.023 L 770.133 337.512 L 756.391 337.512 L 756.391 334.023 L 770.133 334.023 Z"/>
    <path style="fill: none; stroke: rgb(76, 76, 76); stroke-width: 2;" d="M 717.857 347.558 L 775 347.558"/>
    <path style="fill: rgb(255, 255, 255); stroke: rgb(76, 76, 76); stroke-width: 2;" d="M 675 285.361 L 703.571 285.361 L 703.571 350 L 675 350 L 675 285.361 Z"/>
    <path style="fill: rgb(255, 255, 255); stroke: rgb(76, 76, 76); stroke-width: 2;" d="M 677.317 287.463 L 701.169 287.463 L 701.169 350 L 677.317 350 L 677.317 287.463 Z"/>
    <path style="fill: rgb(255, 255, 255); stroke: rgb(76, 76, 76); stroke-width: 2;" d="M 677.317 290.616 L 701.169 290.616 L 701.169 297.898 L 677.317 297.898 L 677.317 290.616 Z"/>
    <path style="fill: rgb(255, 255, 255); stroke: rgb(76, 76, 76); stroke-width: 2;" d="M 677.317 297.898 L 701.169 297.898 L 701.169 305.181 L 677.317 305.181 L 677.317 297.898 Z"/>
    <path style="fill: rgb(0, 0, 0); stroke: rgb(76, 76, 76); stroke-width: 2;" d="M 679.72 293.694 L 698.767 293.694 L 698.767 294.745 L 679.72 294.745 L 679.72 293.694 Z"/>
    <path style="fill: rgb(0, 0, 0); stroke: rgb(76, 76, 76); stroke-width: 2;" d="M 679.72 300 L 698.767 300 L 698.767 303.078 L 679.72 303.078 L 679.72 300 Z"/>
    <path style="fill: rgb(255, 255, 255); stroke: rgb(76, 76, 76); stroke-width: 2;" d="M 679.72 275 L 698.767 275 L 703.571 285.361 L 675 285.361 L 679.72 275 Z"/>
    <path style="fill: rgb(255, 255, 255); stroke: rgb(76, 76, 76); stroke-width: 2;" d="M 695.163 300 L 701.169 300 L 701.169 303.078 L 695.163 303.078 L 695.163 300 Z"/>
    <path style="fill: rgb(255, 255, 255); stroke: rgb(76, 76, 76); stroke-width: 2;" d="M 697.566 300 L 698.767 300 L 698.767 303.078 L 697.566 303.078 L 697.566 300 Z"/>
    <path style="fill: rgb(255, 255, 255); stroke: rgb(76, 76, 76); stroke-width: 2;" d="M 697.566 291.592 L 692.847 291.592 L 692.847 292.643 L 697.566 292.643 L 697.566 291.592 Z"/>
    <circle style="fill: rgb(255, 255, 255); stroke: rgb(76, 76, 76); stroke-width: 2;" cx="890.673" cy="114.148" r="1.051" transform="matrix(1.142857, 0, 0, 1.000013, -320.346635, 178.493448)"/>
  </g>
  <rect x="724.832" y="275" width="125.168" height="25.136" style="stroke: rgb(0, 0, 0); fill: rgb(120, 231, 228); stroke-width: 0.693;"/>
  <rect x="725" y="300.136" width="125" height="25" style="fill: rgb(216, 216, 216); stroke: rgb(0, 0, 0); stroke-width: 1;"/>
  <text style="fill: rgb(51, 51, 51); font-family: Bahnschrift; font-size: 12px; white-space: pre; stroke-width: 1;" x="760.352" y="292.764">PC Server</text>
  <text style="fill: rgb(51, 51, 51); font-family: Bahnschrift; font-size: 12px; white-space: pre; stroke-width: 1;" x="751.1" y="317.975" transform="matrix(1, 0, 0, 1, -3, 0)">IP : xxx.xxx.xx.xx<tspan x="751.0999755859375" dy="1em">​</tspan></text>
  <text style="fill: rgb(51, 51, 51); font-family: Bahnschrift; font-size: 30px; white-space: pre; stroke-width: 1;" x="312.458" y="50.984">OVERVIEW COMPRESSOR</text>
  <path style="fill: none; stroke-width: 1.386; stroke-dasharray: 6, 4; stroke: rgb(0, 0, 0);" d="M 625 75 L 625 114.125 L 625 264.125 L 625 450"/>
</svg>