<?xml version="1.0" encoding="utf-8"?>
<svg xmlns="http://www.w3.org/2000/svg" xmlns:bx="https://boxy-svg.com" viewBox="0 0 950 500">
  <defs>
    <bx:grid x="0" y="0" width="25" height="25"/>
  </defs>
  <rect x="12.226" y="12.005" width="924.818" height="476.396" style="fill: rgb(216, 216, 216); stroke: rgb(0, 0, 0);"/>
  <rect x="25" y="75" width="900" height="400" style="stroke: rgb(0, 0, 0); fill: rgb(255, 255, 255);"/>
  <rect x="50" y="100.548" width="100.168" height="25.136" style="stroke: rgb(0, 0, 0); fill: rgb(120, 231, 228); stroke-width: 0.693;"/>
  <rect x="50" y="125" width="100.168" height="50" style="stroke: rgb(0, 0, 0); stroke-width: 0.693; fill: rgb(244, 248, 248);"/>
  <ellipse style="fill: rgb(216, 216, 216); stroke: rgb(0, 0, 0); stroke-width: 0.693;" cx="125.124" cy="137.355" rx="11.269" ry="10.987"/>
  <g transform="matrix(1.13391, 0, 0, 1.234446, -9.410634, 162.99009)" style="">
    <path style="fill: rgb(0, 0, 0); stroke-width: 1;" d="M 363.181 109.151 L 363.181 110.989 L 460.721 110.989 L 469.183 107.313 L 469.183 105.958 L 460.721 109.151 L 363.181 109.151 Z"/>
    <path style="fill: rgb(115, 135, 166); stroke: rgb(76, 76, 76); stroke-width: 2;" d="M 361.061 109.151 L 361.061 53.909 L 462.836 53.909 L 462.836 109.151 L 361.061 109.151 Z"/>
    <path style="fill: rgb(166, 186, 217); stroke: rgb(76, 76, 76); stroke-width: 2;" d="M 445.801 105.475 L 445.801 57.586 L 454.374 57.586 L 454.374 105.475 L 445.801 105.475 Z"/>
    <path style="fill: rgb(166, 186, 217); stroke: rgb(76, 76, 76); stroke-width: 2;" d="M 433.101 105.475 L 433.101 57.586 L 441.571 57.586 L 441.571 105.475 L 433.101 105.475 Z"/>
    <path style="fill: rgb(166, 186, 217); stroke: rgb(76, 76, 76); stroke-width: 2;" d="M 420.411 105.475 L 420.411 57.586 L 428.871 57.586 L 428.871 105.475 L 420.411 105.475 Z"/>
    <path style="fill: rgb(166, 186, 217); stroke: rgb(76, 76, 76); stroke-width: 2;" d="M 407.721 105.475 L 407.721 57.586 L 416.181 57.586 L 416.181 105.475 L 407.721 105.475 Z"/>
    <path style="fill: rgb(166, 186, 217); stroke: rgb(76, 76, 76); stroke-width: 2;" d="M 395.021 105.475 L 395.021 57.586 L 403.481 57.586 L 403.481 105.475 L 395.021 105.475 Z"/>
    <path style="fill: rgb(166, 186, 217); stroke: rgb(76, 76, 76); stroke-width: 2;" d="M 382.221 105.475 L 382.221 57.586 L 390.791 57.586 L 390.791 105.475 L 382.221 105.475 Z"/>
    <path style="fill: rgb(166, 186, 217); stroke: rgb(76, 76, 76); stroke-width: 2;" d="M 369.521 105.475 L 369.521 57.586 L 377.991 57.586 L 377.991 105.475 L 369.521 105.475 Z"/>
    <path style="fill: rgb(0, 0, 0); stroke-width: 1;" d="M 371.641 81.579 L 371.641 76.064 L 375.871 76.064 L 375.871 81.579 L 371.641 81.579 Z"/>
    <path style="fill: rgb(0, 0, 0); stroke-width: 1;" d="M 371.531 94.446 L 371.531 88.931 L 375.871 88.931 L 375.871 94.446 L 371.531 94.446 Z"/>
    <path style="fill: rgb(0, 0, 0); stroke-width: 1;" d="M 371.641 87.093 L 371.641 83.417 L 375.981 83.417 L 375.981 87.093 L 371.641 87.093 Z"/>
    <path style="fill: rgb(0, 0, 0); stroke-width: 1;" d="M 371.641 99.96 L 371.641 96.284 L 375.871 96.284 L 375.871 99.96 L 371.641 99.96 Z"/>
    <path style="fill: rgb(0, 0, 0); stroke-width: 1;" d="M 384.331 81.579 L 384.331 76.064 L 388.561 76.064 L 388.561 81.579 L 384.331 81.579 Z"/>
    <path style="fill: rgb(0, 0, 0); stroke-width: 1;" d="M 384.331 94.446 L 384.331 88.931 L 388.561 88.931 L 388.561 94.446 L 384.331 94.446 Z"/>
    <path style="fill: rgb(0, 0, 0); stroke-width: 1;" d="M 384.331 87.093 L 384.331 83.417 L 388.671 83.417 L 388.671 87.093 L 384.331 87.093 Z"/>
    <path style="fill: rgb(0, 0, 0); stroke-width: 1;" d="M 384.331 99.96 L 384.331 96.284 L 388.561 96.284 L 388.561 99.96 L 384.331 99.96 Z"/>
    <path style="fill: rgb(0, 0, 0); stroke-width: 1;" d="M 397.031 81.579 L 397.031 76.064 L 401.371 76.064 L 401.371 81.579 L 397.031 81.579 Z"/>
    <path style="fill: rgb(0, 0, 0); stroke-width: 1;" d="M 397.031 94.446 L 397.031 88.931 L 401.261 88.931 L 401.261 94.446 L 397.031 94.446 Z"/>
    <path style="fill: rgb(0, 0, 0); stroke-width: 1;" d="M 397.141 87.093 L 397.141 83.417 L 401.371 83.417 L 401.371 87.093 L 397.141 87.093 Z"/>
    <path style="fill: rgb(0, 0, 0); stroke-width: 1;" d="M 397.031 99.96 L 397.031 96.284 L 401.371 96.284 L 401.371 99.96 L 397.031 99.96 Z"/>
    <path style="fill: rgb(0, 0, 0); stroke-width: 1;" d="M 385.451 105.475 L 385.451 101.798 L 387.561 101.798 L 387.561 105.475 L 385.451 105.475 Z"/>
    <path style="fill: rgb(0, 0, 0); stroke-width: 1;" d="M 372.751 105.475 L 372.751 101.798 L 374.871 101.798 L 374.871 105.475 L 372.751 105.475 Z"/>
    <path style="fill: rgb(0, 0, 0); stroke-width: 1;" d="M 372.751 61.262 L 372.751 57.586 L 374.871 57.586 L 374.871 61.262 L 372.751 61.262 Z"/>
    <path style="fill: rgb(0, 0, 0); stroke-width: 1;" d="M 385.451 61.262 L 385.451 57.586 L 387.561 57.586 L 387.561 61.262 L 385.451 61.262 Z"/>
    <path style="fill: rgb(0, 0, 0); stroke-width: 1;" d="M 398.141 61.262 L 398.141 57.586 L 400.261 57.586 L 400.261 61.262 L 398.141 61.262 Z"/>
    <path style="fill: rgb(0, 0, 0); stroke-width: 1;" d="M 398.141 105.475 L 398.141 101.798 L 400.261 101.798 L 400.261 105.475 L 398.141 105.475 Z"/>
    <path style="fill: rgb(0, 0, 0); stroke-width: 1;" d="M 449.031 80.611 L 451.141 80.611 L 451.141 82.449 L 449.031 82.449 L 449.031 80.611 Z"/>
    <path style="fill: rgb(0, 0, 0); stroke-width: 1;" d="M 449.031 76.935 L 451.141 76.935 L 451.141 78.87 L 449.031 78.87 L 449.031 76.935 Z"/>
    <path style="fill: rgb(0, 0, 0); stroke-width: 1;" d="M 449.031 84.287 L 451.141 84.287 L 451.141 86.126 L 449.031 86.126 L 449.031 84.287 Z"/>
    <path style="fill: rgb(0, 0, 0); stroke-width: 1;" d="M 449.031 73.258 L 451.141 73.258 L 451.141 75.097 L 449.031 75.097 L 449.031 73.258 Z"/>
    <path style="fill: rgb(0, 0, 0); stroke-width: 1;" d="M 449.031 87.964 L 451.141 87.964 L 451.141 89.802 L 449.031 89.802 L 449.031 87.964 Z"/>
    <path style="fill: rgb(0, 0, 0); stroke-width: 1;" d="M 449.031 69.582 L 451.141 69.582 L 451.141 71.42 L 449.031 71.42 L 449.031 69.582 Z"/>
    <path style="fill: rgb(0, 0, 0); stroke-width: 1;" d="M 449.031 91.64 L 451.141 91.64 L 451.141 93.478 L 449.031 93.478 L 449.031 91.64 Z"/>
    <path style="fill: rgb(0, 0, 0); stroke-width: 1;" d="M 436.331 80.611 L 438.451 80.611 L 438.451 82.449 L 436.331 82.449 L 436.331 80.611 Z"/>
    <path style="fill: rgb(0, 0, 0); stroke-width: 1;" d="M 436.331 76.935 L 438.451 76.935 L 438.451 78.87 L 436.331 78.87 L 436.331 76.935 Z"/>
    <path style="fill: rgb(0, 0, 0); stroke-width: 1;" d="M 436.331 84.287 L 438.451 84.287 L 438.451 86.126 L 436.331 86.126 L 436.331 84.287 Z"/>
    <path style="fill: rgb(0, 0, 0); stroke-width: 1;" d="M 436.331 73.258 L 438.451 73.258 L 438.451 75.097 L 436.331 75.097 L 436.331 73.258 Z"/>
    <path style="fill: rgb(0, 0, 0); stroke-width: 1;" d="M 436.331 87.964 L 438.451 87.964 L 438.451 89.802 L 436.331 89.802 L 436.331 87.964 Z"/>
    <path style="fill: rgb(0, 0, 0); stroke-width: 1;" d="M 436.331 69.582 L 438.451 69.582 L 438.451 71.42 L 436.331 71.42 L 436.331 69.582 Z"/>
    <path style="fill: rgb(0, 0, 0); stroke-width: 1;" d="M 436.331 91.64 L 438.451 91.64 L 438.451 93.478 L 436.331 93.478 L 436.331 91.64 Z"/>
    <path style="fill: rgb(89, 109, 140); stroke: rgb(76, 76, 76); stroke-width: 2;" d="M 462.836 53.909 L 471.299 50.233 L 471.299 105.475 L 462.836 109.151 L 462.836 53.909 Z"/>
    <path style="fill: rgb(191, 211, 242); stroke: rgb(76, 76, 76); stroke-width: 2;" d="M 462.836 53.909 L 471.299 50.233 L 369.521 50.233 L 361.061 53.909 L 462.836 53.909 Z"/>
  </g>
  <text style="fill: rgb(51, 51, 51); font-family: Bahnschrift; font-size: 12px; white-space: pre;" x="56" y="116.982">AirDryer A</text>
  <rect x="50" y="150" width="100" height="25" style="fill: rgb(216, 216, 216); stroke: rgb(0, 0, 0);"/>
  <text style="fill: rgb(51, 51, 51); font-family: Bahnschrift; font-size: 15px; white-space: pre; stroke-width: 1;" x="56.368" y="141.716">On/Off</text>
  <text style="fill: rgb(51, 51, 51); font-family: Bahnschrift; font-size: 15px; white-space: pre; stroke-width: 1;" x="120.949" y="168.123">H</text>
  <text style="fill: rgb(51, 51, 51); font-family: Bahnschrift; font-size: 15px; white-space: pre; stroke-width: 1;" x="56.007" y="167.208">####</text>
  <rect x="49.832" y="225.548" width="100.168" height="25.136" style="stroke: rgb(0, 0, 0); fill: rgb(120, 231, 228); stroke-width: 0.693;"/>
  <rect x="49.832" y="250" width="100.168" height="50" style="stroke: rgb(0, 0, 0); stroke-width: 0.693; fill: rgb(244, 248, 248);"/>
  <ellipse style="fill: rgb(216, 216, 216); stroke: rgb(0, 0, 0); stroke-width: 0.693;" cx="124.956" cy="262.355" rx="11.269" ry="10.987"/>
  <text style="fill: rgb(51, 51, 51); font-family: Bahnschrift; font-size: 12px; white-space: pre; stroke-width: 1;" x="55.832" y="241.982">AirDryer B</text>
  <rect x="49.832" y="275" width="100" height="25" style="fill: rgb(216, 216, 216); stroke: rgb(0, 0, 0); stroke-width: 1;"/>
  <text style="fill: rgb(51, 51, 51); font-family: Bahnschrift; font-size: 15px; white-space: pre; stroke-width: 1;" x="56.2" y="266.716">On/Off</text>
  <text style="fill: rgb(51, 51, 51); font-family: Bahnschrift; font-size: 15px; white-space: pre; stroke-width: 1;" x="120.781" y="293.123">H</text>
  <text style="fill: rgb(51, 51, 51); font-family: Bahnschrift; font-size: 15px; white-space: pre; stroke-width: 1;" x="55.839" y="292.208">####</text>
  <rect x="49.832" y="350.548" width="100.168" height="25.136" style="stroke: rgb(0, 0, 0); fill: rgb(120, 231, 228); stroke-width: 0.693;"/>
  <rect x="49.832" y="375" width="100.168" height="50" style="stroke: rgb(0, 0, 0); stroke-width: 0.693; fill: rgb(244, 248, 248);"/>
  <ellipse style="fill: rgb(216, 216, 216); stroke: rgb(0, 0, 0); stroke-width: 0.693;" cx="124.956" cy="387.355" rx="11.269" ry="10.987"/>
  <text style="fill: rgb(51, 51, 51); font-family: Bahnschrift; font-size: 12px; white-space: pre; stroke-width: 1;" x="55.832" y="366.982">AirDryer C</text>
  <rect x="49.832" y="400" width="100" height="25" style="fill: rgb(216, 216, 216); stroke: rgb(0, 0, 0); stroke-width: 1;"/>
  <text style="fill: rgb(51, 51, 51); font-family: Bahnschrift; font-size: 15px; white-space: pre; stroke-width: 1;" x="56.2" y="391.716">On/Off</text>
  <text style="fill: rgb(51, 51, 51); font-family: Bahnschrift; font-size: 15px; white-space: pre; stroke-width: 1;" x="120.781" y="418.123">H</text>
  <text style="fill: rgb(51, 51, 51); font-family: Bahnschrift; font-size: 15px; white-space: pre; stroke-width: 1;" x="55.839" y="417.208">####</text>
  <path style="fill: none; stroke-width: 1.386; stroke-dasharray: 6, 4; stroke: rgb(0, 4, 255);" d="M 250 125 L 350 125 L 350 275 L 400 275"/>
  <path style="fill: none; stroke-width: 1.386; stroke-dasharray: 6, 4; stroke: rgb(0, 4, 255);" d="M 250 250 L 350 250 L 350 275 L 400 275"/>
  <path style="fill: none; stroke-width: 1.386; stroke-dasharray: 6, 4; stroke: rgb(0, 4, 255);" d="M 250 375 L 350 375 L 350 275 L 400 275"/>
  <g transform="matrix(1, 0, 0, 1, 49.999999, -99.999998)" style="">
    <path style="fill: rgb(255, 255, 255); stroke: rgb(76, 76, 76); stroke-width: 2;" d="M 717.857 292.93 L 717.857 292.651 L 717.857 292.442 L 717.857 292.163 L 717.857 291.954 L 717.857 291.744 L 717.857 291.535 L 717.857 291.396 L 717.914 291.186 L 717.914 291.046 L 717.972 290.907 L 718.029 290.837 L 718.086 290.698 L 718.143 290.558 L 718.201 290.488 L 718.258 290.419 L 718.372 290.349 L 718.487 290.279 L 718.602 290.209 L 718.716 290.14 L 718.888 290.14 L 719.06 290.07 L 719.231 290.07 L 719.46 290 L 719.632 290 L 719.919 290 L 720.147 290 L 720.434 290 L 720.72 290 L 721.063 290 L 721.407 290 L 721.751 290 L 722.151 290 L 770.706 290 L 771.106 290 L 771.45 290 L 771.794 290 L 772.137 290 L 772.423 290 L 772.71 290 L 772.939 290 L 773.225 290 L 773.397 290.07 L 773.626 290.07 L 773.798 290.14 L 773.969 290.14 L 774.141 290.209 L 774.256 290.279 L 774.37 290.349 L 774.485 290.419 L 774.599 290.488 L 774.657 290.558 L 774.714 290.698 L 774.771 290.837 L 774.828 290.977 L 774.886 291.117 L 774.943 291.256 L 774.943 291.465 L 775 291.674 L 775 291.884 L 775 292.093 L 775 292.303 L 775 292.581 L 775 292.86 L 775 293.209 L 775 293.488 L 775 335.558 L 775 335.907 L 775 336.256 L 775 336.604 L 775 336.884 L 775 337.163 L 775 337.442 L 775 337.72 L 775 337.93 L 774.943 338.14 L 774.943 338.349 L 774.943 338.488 L 774.886 338.628 L 774.886 338.767 L 774.828 338.907 L 774.771 339.047 L 774.714 339.117 L 774.657 339.256 L 774.599 339.326 L 774.485 339.396 L 774.427 339.465 L 774.313 339.465 L 774.198 339.535 L 774.084 339.535 L 773.969 339.604 L 773.798 339.604 L 773.683 339.604 L 773.511 339.604 L 773.339 339.674 L 773.168 339.674 L 772.939 339.674 L 772.71 339.674 L 772.481 339.674 L 721.579 339.674 L 721.235 339.674 L 720.892 339.674 L 720.663 339.674 L 720.377 339.674 L 720.09 339.604 L 719.861 339.604 L 719.69 339.604 L 719.46 339.604 L 719.289 339.535 L 719.117 339.535 L 718.945 339.465 L 718.831 339.465 L 718.659 339.396 L 718.544 339.326 L 718.43 339.256 L 718.372 339.117 L 718.258 339.047 L 718.201 338.907 L 718.143 338.767 L 718.086 338.628 L 718.029 338.488 L 717.972 338.349 L 717.914 338.14 L 717.914 337.93 L 717.914 337.72 L 717.857 337.442 L 717.857 337.163 L 717.857 336.884 L 717.857 336.604 L 717.857 336.256 L 717.857 335.907 L 717.857 335.558 L 717.857 292.93 Z"/>
    <path style="fill: rgb(255, 255, 255); stroke: rgb(76, 76, 76); stroke-width: 2;" d="M 732.114 339.674 L 760.743 339.674 L 760.743 342.884 L 732.114 342.884 L 732.114 339.674 Z"/>
    <path style="fill: rgb(67, 67, 67); stroke: rgb(76, 76, 76); stroke-width: 2;" d="M 722.151 299.419 L 722.151 299.07 L 722.151 298.791 L 722.151 298.442 L 722.151 298.163 L 722.151 297.954 L 722.151 297.675 L 722.209 297.465 L 722.209 297.256 L 722.209 297.046 L 722.266 296.837 L 722.323 296.698 L 722.323 296.558 L 722.381 296.419 L 722.495 296.279 L 722.553 296.209 L 722.61 296.07 L 722.725 296 L 722.838 295.93 L 722.953 295.86 L 723.067 295.791 L 723.239 295.791 L 723.354 295.721 L 723.526 295.721 L 723.754 295.651 L 723.926 295.651 L 724.155 295.651 L 724.385 295.651 L 724.671 295.651 L 724.9 295.651 L 725.243 295.651 L 725.53 295.651 L 725.873 295.651 L 767.557 295.651 L 767.843 295.651 L 768.129 295.651 L 768.358 295.651 L 768.587 295.651 L 768.816 295.651 L 769.045 295.721 L 769.217 295.721 L 769.389 295.791 L 769.561 295.791 L 769.675 295.86 L 769.79 295.86 L 769.962 295.93 L 770.076 296 L 770.133 296.07 L 770.247 296.139 L 770.305 296.209 L 770.362 296.349 L 770.419 296.419 L 770.477 296.558 L 770.534 296.698 L 770.591 296.837 L 770.591 296.907 L 770.649 297.046 L 770.649 297.256 L 770.649 297.396 L 770.706 297.604 L 770.706 297.744 L 770.706 297.954 L 770.706 298.163 L 770.706 298.442 L 770.706 298.651 L 770.706 298.861 L 770.706 327.744 L 770.706 328.093 L 770.706 328.372 L 770.706 328.581 L 770.706 328.861 L 770.763 329.07 L 770.763 329.279 L 770.763 329.488 L 770.763 329.628 L 770.763 329.838 L 770.763 329.977 L 770.706 330.117 L 770.706 330.186 L 770.649 330.326 L 770.649 330.465 L 770.591 330.535 L 770.534 330.604 L 770.477 330.674 L 770.419 330.744 L 770.305 330.814 L 770.19 330.883 L 770.076 330.883 L 769.962 330.883 L 769.79 330.953 L 769.618 330.953 L 769.446 330.953 L 769.274 331.023 L 769.045 331.023 L 768.759 331.023 L 768.53 331.023 L 768.244 331.023 L 767.9 331.023 L 767.557 331.023 L 725.873 331.023 L 725.53 331.023 L 725.243 331.023 L 724.9 331.023 L 724.671 331.023 L 724.385 331.023 L 724.155 331.023 L 723.926 331.023 L 723.754 331.023 L 723.526 331.023 L 723.354 331.023 L 723.239 331.023 L 723.067 330.953 L 722.953 330.953 L 722.838 330.883 L 722.725 330.814 L 722.61 330.744 L 722.553 330.674 L 722.495 330.604 L 722.381 330.465 L 722.323 330.326 L 722.323 330.186 L 722.266 330.046 L 722.209 329.838 L 722.209 329.628 L 722.209 329.419 L 722.151 329.209 L 722.151 328.93 L 722.151 328.651 L 722.151 328.302 L 722.151 327.954 L 722.151 327.604 L 722.151 327.186 L 722.151 299.419 Z"/>
    <path style="fill: rgb(255, 255, 255); stroke: rgb(76, 76, 76); stroke-width: 2;" d="M 717.857 350 L 775 350 L 775 347.558 L 760.743 342.884 L 732.114 342.884 L 717.857 347.558 L 717.857 350 Z"/>
    <path style="fill: rgb(255, 255, 255); stroke: rgb(76, 76, 76); stroke-width: 2;" d="M 770.133 334.023 L 770.133 337.512 L 756.391 337.512 L 756.391 334.023 L 770.133 334.023 Z"/>
    <path style="fill: none; stroke: rgb(76, 76, 76); stroke-width: 2;" d="M 717.857 347.558 L 775 347.558"/>
    <path style="fill: rgb(255, 255, 255); stroke: rgb(76, 76, 76); stroke-width: 2;" d="M 675 285.361 L 703.571 285.361 L 703.571 350 L 675 350 L 675 285.361 Z"/>
    <path style="fill: rgb(255, 255, 255); stroke: rgb(76, 76, 76); stroke-width: 2;" d="M 677.317 287.463 L 701.169 287.463 L 701.169 350 L 677.317 350 L 677.317 287.463 Z"/>
    <path style="fill: rgb(255, 255, 255); stroke: rgb(76, 76, 76); stroke-width: 2;" d="M 677.317 290.616 L 701.169 290.616 L 701.169 297.898 L 677.317 297.898 L 677.317 290.616 Z"/>
    <path style="fill: rgb(255, 255, 255); stroke: rgb(76, 76, 76); stroke-width: 2;" d="M 677.317 297.898 L 701.169 297.898 L 701.169 305.181 L 677.317 305.181 L 677.317 297.898 Z"/>
    <path style="fill: rgb(0, 0, 0); stroke: rgb(76, 76, 76); stroke-width: 2;" d="M 679.72 293.694 L 698.767 293.694 L 698.767 294.745 L 679.72 294.745 L 679.72 293.694 Z"/>
    <path style="fill: rgb(0, 0, 0); stroke: rgb(76, 76, 76); stroke-width: 2;" d="M 679.72 300 L 698.767 300 L 698.767 303.078 L 679.72 303.078 L 679.72 300 Z"/>
    <path style="fill: rgb(255, 255, 255); stroke: rgb(76, 76, 76); stroke-width: 2;" d="M 679.72 275 L 698.767 275 L 703.571 285.361 L 675 285.361 L 679.72 275 Z"/>
    <path style="fill: rgb(255, 255, 255); stroke: rgb(76, 76, 76); stroke-width: 2;" d="M 695.163 300 L 701.169 300 L 701.169 303.078 L 695.163 303.078 L 695.163 300 Z"/>
    <path style="fill: rgb(255, 255, 255); stroke: rgb(76, 76, 76); stroke-width: 2;" d="M 697.566 300 L 698.767 300 L 698.767 303.078 L 697.566 303.078 L 697.566 300 Z"/>
    <path style="fill: rgb(255, 255, 255); stroke: rgb(76, 76, 76); stroke-width: 2;" d="M 697.566 291.592 L 692.847 291.592 L 692.847 292.643 L 697.566 292.643 L 697.566 291.592 Z"/>
    <circle style="fill: rgb(255, 255, 255); stroke: rgb(76, 76, 76); stroke-width: 2;" cx="890.673" cy="114.148" r="1.051" transform="matrix(1.142857, 0, 0, 1.000013, -320.346635, 178.493448)"/>
  </g>
  <path style="fill: none; stroke-width: 1.386; stroke-dasharray: 6, 4; stroke: rgb(6, 255, 0);" d="M 525 250 L 575 250 L 575 200 L 725 200"/>
  <path style="fill: none; stroke-width: 1.386; stroke-dasharray: 6, 4; stroke: rgb(6, 255, 0);" d="M 525 250 L 575 250 L 575 400 L 725 400"/>
  <rect x="399.832" y="149.864" width="125.168" height="25.136" style="stroke: rgb(0, 0, 0); fill: rgb(120, 231, 228); stroke-width: 0.693;"/>
  <rect x="400" y="175" width="125" height="25" style="fill: rgb(216, 216, 216); stroke: rgb(0, 0, 0); stroke-width: 1;"/>
  <text style="fill: rgb(51, 51, 51); font-family: Bahnschrift; font-size: 12px; white-space: pre; stroke-width: 1;" x="425.352" y="167.628">PLC AirDryer</text>
  <text style="fill: rgb(51, 51, 51); font-family: Bahnschrift; font-size: 12px; white-space: pre; stroke-width: 1;" x="426.101" y="192.839">IP : 192.168.0.3</text>
  <rect x="725" y="99.864" width="125.168" height="25.136" style="stroke: rgb(0, 0, 0); fill: rgb(120, 231, 228); stroke-width: 0.693;"/>
  <rect x="725.168" y="125" width="125" height="25" style="fill: rgb(216, 216, 216); stroke: rgb(0, 0, 0); stroke-width: 1;"/>
  <text style="fill: rgb(51, 51, 51); font-family: Bahnschrift; font-size: 12px; white-space: pre; stroke-width: 1;" x="759.52" y="117.628">PC Station</text>
  <text style="fill: rgb(51, 51, 51); font-family: Bahnschrift; font-size: 12px; white-space: pre; stroke-width: 1;" x="751.269" y="142.839">IP : 192.168.0.2</text>
  <g transform="matrix(1, 0, 0, 1, 49.999999, 99.999998)" style="">
    <path style="fill: rgb(255, 255, 255); stroke: rgb(76, 76, 76); stroke-width: 2;" d="M 717.857 292.93 L 717.857 292.651 L 717.857 292.442 L 717.857 292.163 L 717.857 291.954 L 717.857 291.744 L 717.857 291.535 L 717.857 291.396 L 717.914 291.186 L 717.914 291.046 L 717.972 290.907 L 718.029 290.837 L 718.086 290.698 L 718.143 290.558 L 718.201 290.488 L 718.258 290.419 L 718.372 290.349 L 718.487 290.279 L 718.602 290.209 L 718.716 290.14 L 718.888 290.14 L 719.06 290.07 L 719.231 290.07 L 719.46 290 L 719.632 290 L 719.919 290 L 720.147 290 L 720.434 290 L 720.72 290 L 721.063 290 L 721.407 290 L 721.751 290 L 722.151 290 L 770.706 290 L 771.106 290 L 771.45 290 L 771.794 290 L 772.137 290 L 772.423 290 L 772.71 290 L 772.939 290 L 773.225 290 L 773.397 290.07 L 773.626 290.07 L 773.798 290.14 L 773.969 290.14 L 774.141 290.209 L 774.256 290.279 L 774.37 290.349 L 774.485 290.419 L 774.599 290.488 L 774.657 290.558 L 774.714 290.698 L 774.771 290.837 L 774.828 290.977 L 774.886 291.117 L 774.943 291.256 L 774.943 291.465 L 775 291.674 L 775 291.884 L 775 292.093 L 775 292.303 L 775 292.581 L 775 292.86 L 775 293.209 L 775 293.488 L 775 335.558 L 775 335.907 L 775 336.256 L 775 336.604 L 775 336.884 L 775 337.163 L 775 337.442 L 775 337.72 L 775 337.93 L 774.943 338.14 L 774.943 338.349 L 774.943 338.488 L 774.886 338.628 L 774.886 338.767 L 774.828 338.907 L 774.771 339.047 L 774.714 339.117 L 774.657 339.256 L 774.599 339.326 L 774.485 339.396 L 774.427 339.465 L 774.313 339.465 L 774.198 339.535 L 774.084 339.535 L 773.969 339.604 L 773.798 339.604 L 773.683 339.604 L 773.511 339.604 L 773.339 339.674 L 773.168 339.674 L 772.939 339.674 L 772.71 339.674 L 772.481 339.674 L 721.579 339.674 L 721.235 339.674 L 720.892 339.674 L 720.663 339.674 L 720.377 339.674 L 720.09 339.604 L 719.861 339.604 L 719.69 339.604 L 719.46 339.604 L 719.289 339.535 L 719.117 339.535 L 718.945 339.465 L 718.831 339.465 L 718.659 339.396 L 718.544 339.326 L 718.43 339.256 L 718.372 339.117 L 718.258 339.047 L 718.201 338.907 L 718.143 338.767 L 718.086 338.628 L 718.029 338.488 L 717.972 338.349 L 717.914 338.14 L 717.914 337.93 L 717.914 337.72 L 717.857 337.442 L 717.857 337.163 L 717.857 336.884 L 717.857 336.604 L 717.857 336.256 L 717.857 335.907 L 717.857 335.558 L 717.857 292.93 Z"/>
    <path style="fill: rgb(255, 255, 255); stroke: rgb(76, 76, 76); stroke-width: 2;" d="M 732.114 339.674 L 760.743 339.674 L 760.743 342.884 L 732.114 342.884 L 732.114 339.674 Z"/>
    <path style="fill: rgb(67, 67, 67); stroke: rgb(76, 76, 76); stroke-width: 2;" d="M 722.151 299.419 L 722.151 299.07 L 722.151 298.791 L 722.151 298.442 L 722.151 298.163 L 722.151 297.954 L 722.151 297.675 L 722.209 297.465 L 722.209 297.256 L 722.209 297.046 L 722.266 296.837 L 722.323 296.698 L 722.323 296.558 L 722.381 296.419 L 722.495 296.279 L 722.553 296.209 L 722.61 296.07 L 722.725 296 L 722.838 295.93 L 722.953 295.86 L 723.067 295.791 L 723.239 295.791 L 723.354 295.721 L 723.526 295.721 L 723.754 295.651 L 723.926 295.651 L 724.155 295.651 L 724.385 295.651 L 724.671 295.651 L 724.9 295.651 L 725.243 295.651 L 725.53 295.651 L 725.873 295.651 L 767.557 295.651 L 767.843 295.651 L 768.129 295.651 L 768.358 295.651 L 768.587 295.651 L 768.816 295.651 L 769.045 295.721 L 769.217 295.721 L 769.389 295.791 L 769.561 295.791 L 769.675 295.86 L 769.79 295.86 L 769.962 295.93 L 770.076 296 L 770.133 296.07 L 770.247 296.139 L 770.305 296.209 L 770.362 296.349 L 770.419 296.419 L 770.477 296.558 L 770.534 296.698 L 770.591 296.837 L 770.591 296.907 L 770.649 297.046 L 770.649 297.256 L 770.649 297.396 L 770.706 297.604 L 770.706 297.744 L 770.706 297.954 L 770.706 298.163 L 770.706 298.442 L 770.706 298.651 L 770.706 298.861 L 770.706 327.744 L 770.706 328.093 L 770.706 328.372 L 770.706 328.581 L 770.706 328.861 L 770.763 329.07 L 770.763 329.279 L 770.763 329.488 L 770.763 329.628 L 770.763 329.838 L 770.763 329.977 L 770.706 330.117 L 770.706 330.186 L 770.649 330.326 L 770.649 330.465 L 770.591 330.535 L 770.534 330.604 L 770.477 330.674 L 770.419 330.744 L 770.305 330.814 L 770.19 330.883 L 770.076 330.883 L 769.962 330.883 L 769.79 330.953 L 769.618 330.953 L 769.446 330.953 L 769.274 331.023 L 769.045 331.023 L 768.759 331.023 L 768.53 331.023 L 768.244 331.023 L 767.9 331.023 L 767.557 331.023 L 725.873 331.023 L 725.53 331.023 L 725.243 331.023 L 724.9 331.023 L 724.671 331.023 L 724.385 331.023 L 724.155 331.023 L 723.926 331.023 L 723.754 331.023 L 723.526 331.023 L 723.354 331.023 L 723.239 331.023 L 723.067 330.953 L 722.953 330.953 L 722.838 330.883 L 722.725 330.814 L 722.61 330.744 L 722.553 330.674 L 722.495 330.604 L 722.381 330.465 L 722.323 330.326 L 722.323 330.186 L 722.266 330.046 L 722.209 329.838 L 722.209 329.628 L 722.209 329.419 L 722.151 329.209 L 722.151 328.93 L 722.151 328.651 L 722.151 328.302 L 722.151 327.954 L 722.151 327.604 L 722.151 327.186 L 722.151 299.419 Z"/>
    <path style="fill: rgb(255, 255, 255); stroke: rgb(76, 76, 76); stroke-width: 2;" d="M 717.857 350 L 775 350 L 775 347.558 L 760.743 342.884 L 732.114 342.884 L 717.857 347.558 L 717.857 350 Z"/>
    <path style="fill: rgb(255, 255, 255); stroke: rgb(76, 76, 76); stroke-width: 2;" d="M 770.133 334.023 L 770.133 337.512 L 756.391 337.512 L 756.391 334.023 L 770.133 334.023 Z"/>
    <path style="fill: none; stroke: rgb(76, 76, 76); stroke-width: 2;" d="M 717.857 347.558 L 775 347.558"/>
    <path style="fill: rgb(255, 255, 255); stroke: rgb(76, 76, 76); stroke-width: 2;" d="M 675 285.361 L 703.571 285.361 L 703.571 350 L 675 350 L 675 285.361 Z"/>
    <path style="fill: rgb(255, 255, 255); stroke: rgb(76, 76, 76); stroke-width: 2;" d="M 677.317 287.463 L 701.169 287.463 L 701.169 350 L 677.317 350 L 677.317 287.463 Z"/>
    <path style="fill: rgb(255, 255, 255); stroke: rgb(76, 76, 76); stroke-width: 2;" d="M 677.317 290.616 L 701.169 290.616 L 701.169 297.898 L 677.317 297.898 L 677.317 290.616 Z"/>
    <path style="fill: rgb(255, 255, 255); stroke: rgb(76, 76, 76); stroke-width: 2;" d="M 677.317 297.898 L 701.169 297.898 L 701.169 305.181 L 677.317 305.181 L 677.317 297.898 Z"/>
    <path style="fill: rgb(0, 0, 0); stroke: rgb(76, 76, 76); stroke-width: 2;" d="M 679.72 293.694 L 698.767 293.694 L 698.767 294.745 L 679.72 294.745 L 679.72 293.694 Z"/>
    <path style="fill: rgb(0, 0, 0); stroke: rgb(76, 76, 76); stroke-width: 2;" d="M 679.72 300 L 698.767 300 L 698.767 303.078 L 679.72 303.078 L 679.72 300 Z"/>
    <path style="fill: rgb(255, 255, 255); stroke: rgb(76, 76, 76); stroke-width: 2;" d="M 679.72 275 L 698.767 275 L 703.571 285.361 L 675 285.361 L 679.72 275 Z"/>
    <path style="fill: rgb(255, 255, 255); stroke: rgb(76, 76, 76); stroke-width: 2;" d="M 695.163 300 L 701.169 300 L 701.169 303.078 L 695.163 303.078 L 695.163 300 Z"/>
    <path style="fill: rgb(255, 255, 255); stroke: rgb(76, 76, 76); stroke-width: 2;" d="M 697.566 300 L 698.767 300 L 698.767 303.078 L 697.566 303.078 L 697.566 300 Z"/>
    <path style="fill: rgb(255, 255, 255); stroke: rgb(76, 76, 76); stroke-width: 2;" d="M 697.566 291.592 L 692.847 291.592 L 692.847 292.643 L 697.566 292.643 L 697.566 291.592 Z"/>
    <circle style="fill: rgb(255, 255, 255); stroke: rgb(76, 76, 76); stroke-width: 2;" cx="890.673" cy="114.148" r="1.051" transform="matrix(1.142857, 0, 0, 1.000013, -320.346635, 178.493448)"/>
  </g>
  <rect x="724.832" y="299.864" width="125.168" height="25.136" style="stroke: rgb(0, 0, 0); fill: rgb(120, 231, 228); stroke-width: 0.693;"/>
  <rect x="725" y="325" width="125" height="25" style="fill: rgb(216, 216, 216); stroke: rgb(0, 0, 0); stroke-width: 1;"/>
  <text style="fill: rgb(51, 51, 51); font-family: Bahnschrift; font-size: 12px; white-space: pre; stroke-width: 1;" x="760.352" y="317.628">PC Server</text>
  <text style="fill: rgb(51, 51, 51); font-family: Bahnschrift; font-size: 12px; white-space: pre; stroke-width: 1;" x="751.1" y="317.975" transform="matrix(1, 0, 0, 1, -3.000031, 24.863983)">IP : xxx.xxx.xx.xx<tspan x="751.0999755859375" dy="1em">​</tspan></text>
  <text style="fill: rgb(51, 51, 51); font-family: Bahnschrift; font-size: 30px; white-space: pre; stroke-width: 1;" x="316.458" y="50.984">OVERVIEW AIR DRYER</text>
  <path style="fill: none; stroke-width: 1.386; stroke-dasharray: 6, 4; stroke: rgb(0, 0, 0);" d="M 625 75 L 625 114.125 L 625 264.125 L 625 475"/>
  <g transform="matrix(0.999999, 0, 0, 0.888921, -1058.006891, 44.212168)" style="">
    <g id="Group_Base" transform="matrix(1, 0, 0, 1, 1236.05109, 62.756969)">
      <path fill="#4C4C4C" stroke="#4C4C4C" stroke-width="0.25" d="M4.392,105.741h62.834v2.253H4.392V105.741z"/>
      <path fill="#4C4C4C" stroke="#4C4C4C" stroke-width="0.25" d="M0,112.498l1.014-1.126H2.14v-11.261H1.014L0,98.984h4.392v13.514H0z   "/>
      <path fill="#4C4C4C" stroke="#4C4C4C" stroke-width="0.25" d="M71.957,98.984l-1.127,1.127h-1.125v11.261h1.125l1.127,1.126h-4.504   V98.984H71.957z"/>
    </g>
    <g id="Group_Supports" transform="matrix(1, 0, 0, 1, 1236.05109, 62.756969)">
      <path fill="#666666" stroke="#4C4C4C" stroke-width="0.25" d="M11.148,89.977h49.547v13.514H11.148V89.977z"/>
      <path fill="#B2B2B2" stroke="#4C4C4C" stroke-width="0.25" d="M4.392,76.463h4.504v27.026H4.392V76.463z"/>
      <path fill="#B2B2B2" stroke="#4C4C4C" stroke-width="0.25" d="M62.948,76.463h4.278v27.026h-4.278V76.463z"/>
      <path fill="#FFFFFF" stroke="#4C4C4C" stroke-width="0.25" d="M15.652,102.363h5.631v-6.758h-5.631h-0.337l-0.451,0.338   l-0.338,0.339l-0.338,0.563l-0.338,0.563l-0.225,0.563l-0.112,0.563l-0.113,0.45l0.113,0.451l0.112,0.563l0.225,0.563l0.338,0.563   l0.338,0.449l0.338,0.338l0.451,0.338L15.652,102.363z"/>
      <path fill="#FFFFFF" stroke="#4C4C4C" stroke-width="0.25" d="M56.191,102.363h-5.631v-6.758h5.631h0.451l0.338,0.338l0.449,0.339   l0.338,0.563l0.226,0.563l0.226,0.563l0.225,0.563v0.448v0.451l-0.225,0.563l-0.226,0.563l-0.226,0.563l-0.338,0.449l-0.449,0.338   l-0.338,0.338L56.191,102.363z"/>
    </g>
    <g id="Group_Pipes" transform="matrix(1, 0, 0, 1, 1236.05109, 62.756969)">
      <linearGradient id="SVGID_1_" gradientUnits="userSpaceOnUse" x1="341.6875" y1="-275.623" x2="346.1914" y2="-275.623" gradientTransform="matrix(1 0 0 -1 -290 -266.5)">
        <stop offset="0" style="stop-color:#999999"/>
        <stop offset="0.5" style="stop-color:#CCCCCC"/>
        <stop offset="1" style="stop-color:#999999"/>
      </linearGradient>
      <path fill="url(#SVGID_1_)" d="M56.191,6.871h-4.504v4.504h4.504V6.871z"/>
      <path fill="none" stroke="#4C4C4C" stroke-width="0.25" d="M56.191,11.375V6.871h-4.504v4.504H56.191z"/>
      <linearGradient id="SVGID_2_" gradientUnits="userSpaceOnUse" x1="305.6523" y1="-275.623" x2="310.1572" y2="-275.623" gradientTransform="matrix(1 0 0 -1 -290 -266.5)">
        <stop offset="0" style="stop-color:#999999"/>
        <stop offset="0.5" style="stop-color:#CCCCCC"/>
        <stop offset="1" style="stop-color:#999999"/>
      </linearGradient>
      <path fill="url(#SVGID_2_)" d="M20.157,6.871h-4.504v4.504h4.504V6.871z"/>
      <path fill="none" stroke="#4C4C4C" stroke-width="0.25" d="M20.157,11.375V6.871h-4.504v4.504H20.157z"/>
      <linearGradient id="SVGID_3_" gradientUnits="userSpaceOnUse" x1="323.6699" y1="-283.5059" x2="328.1738" y2="-283.5059" gradientTransform="matrix(1 0 0 -1 -290 -266.5)">
        <stop offset="0" style="stop-color:#999999"/>
        <stop offset="0.5" style="stop-color:#CCCCCC"/>
        <stop offset="1" style="stop-color:#999999"/>
      </linearGradient>
      <path fill="url(#SVGID_3_)" stroke="#4C4C4C" stroke-width="0.25" d="M38.174,6.871H33.67v20.27h4.504V6.871z"/>
      <path fill="#999999" d="M58.443,6.871V4.619H13.4v2.252H58.443z"/>
      <linearGradient id="SVGID_4_" gradientUnits="userSpaceOnUse" x1="325.9219" y1="-271.0625" x2="325.9219" y2="-273.2832" gradientTransform="matrix(1 0 0 -1 -290 -266.5)">
        <stop offset="0" style="stop-color:#999999"/>
        <stop offset="0.5" style="stop-color:#CCCCCC"/>
        <stop offset="1" style="stop-color:#999999"/>
      </linearGradient>
      <path fill="url(#SVGID_4_)" stroke="#4C4C4C" stroke-width="0.25" d="M13.4,6.871h45.043V4.619H13.4V6.871"/>
      <linearGradient id="SVGID_5_" gradientUnits="userSpaceOnUse" x1="325.9219" y1="-362.064" x2="325.9219" y2="-368.8364" gradientTransform="matrix(1 0 0 -1 -290 -266.5)">
        <stop offset="0" style="stop-color:#999999"/>
        <stop offset="0.5" style="stop-color:#CCCCCC"/>
        <stop offset="1" style="stop-color:#999999"/>
      </linearGradient>
      <path fill="url(#SVGID_5_)" stroke="#4C4C4C" stroke-width="0.25" d="M21.283,95.605h29.277v6.758H21.283V95.605z"/>
      <linearGradient id="SVGID_6_" gradientUnits="userSpaceOnUse" x1="322.5439" y1="-355.3496" x2="329.3008" y2="-355.3496" gradientTransform="matrix(1 0 0 -1 -290 -266.5)">
        <stop offset="0" style="stop-color:#999999"/>
        <stop offset="0.5" style="stop-color:#CCCCCC"/>
        <stop offset="1" style="stop-color:#999999"/>
      </linearGradient>
      <path fill="url(#SVGID_6_)" stroke="#4C4C4C" stroke-width="0.25" d="M39.301,95.605V78.715h-6.757v16.893l0.112,0.676l0.226,0.563   l0.225,0.563l0.45,0.45l0.563,0.449l0.563,0.338l0.563,0.227l0.675,0.111l0.677-0.111l0.676-0.227l0.563-0.338l0.451-0.449   l0.449-0.45l0.339-0.563l0.112-0.563L39.301,95.605z"/>
    </g>
    <g id="Group_Column2" transform="matrix(1, 0, 0, 1, 1236.05109, 62.756969)">
      <linearGradient id="SVGID_7_" gradientUnits="userSpaceOnUse" x1="298.8965" y1="-318.8652" x2="316.9141" y2="-318.8652" gradientTransform="matrix(1 0 0 -1 -290 -266.5)">
        <stop offset="0" style="stop-color:#B2B2B2"/>
        <stop offset="0.5" style="stop-color:#E5E5E5"/>
        <stop offset="1" style="stop-color:#B2B2B2"/>
      </linearGradient>
      <path fill="url(#SVGID_7_)" d="M26.914,13.628V94.48H8.896V13.628c0,0,2.204-3.378,9.009-3.378   C25.176,10.25,26.914,13.628,26.914,13.628"/>
      <path fill="none" stroke="#4C4C4C" stroke-width="0.25" d="M26.914,13.628V94.48H8.896V13.628c0,0,1.972-3.378,9.043-3.378   C25.442,10.25,26.914,13.628,26.914,13.628z"/>
    </g>
    <g id="Group_Column1" transform="matrix(1, 0, 0, 1, 1236.05109, 62.756969)">
      <linearGradient id="SVGID_8_" gradientUnits="userSpaceOnUse" x1="334.9316" y1="-318.7939" x2="352.9482" y2="-318.7939" gradientTransform="matrix(1 0 0 -1 -290 -266.5)">
        <stop offset="0" style="stop-color:#B2B2B2"/>
        <stop offset="0.5" style="stop-color:#E5E5E5"/>
        <stop offset="1" style="stop-color:#B2B2B2"/>
      </linearGradient>
      <path fill="url(#SVGID_8_)" d="M62.948,13.628V94.48H44.932V13.628c0,0,1.692-3.52,8.67-3.52   C61.661,10.108,62.948,13.628,62.948,13.628z"/>
      <path fill="none" stroke="#4C4C4C" stroke-width="0.25" d="M62.948,13.628V94.48H44.932V13.628c0,0,1.668-3.52,8.67-3.52   C61.589,10.108,62.948,13.628,62.948,13.628z"/>
    </g>
    <g id="Group_Boards" transform="matrix(1, 0, 0, 1, 1236.05109, 62.756969)">
      <circle fill="#666666" stroke="#4C4C4C" stroke-width="0.25" cx="31.981" cy="24.325" r="3.941"/>
      <path fill="#FFFFFF" stroke="#4C4C4C" stroke-width="0.25" d="M22.409,27.141h27.026v33.783H22.409V27.141z"/>
      <path fill="#4C4C4C" stroke="#4C4C4C" stroke-width="0.25" d="M25.787,31.645h20.27v21.396h-20.27V31.645z"/>
      <path fill="#4C4C4C" stroke="#4C4C4C" stroke-width="0.25" d="M25.787,57.545h20.27v21.17h-20.27V57.545z"/>
      <path fill="#7F7F7F" stroke="#4C4C4C" stroke-width="0.25" d="M37.049,60.924h6.756v7.656h-6.756V60.924z"/>
    </g>
    <g id="Group_Points" transform="matrix(1, 0, 0, 1, 1236.05109, 62.756969)">
      <path fill="#FFFFFF" stroke="#4C4C4C" stroke-width="0.25" d="M15.652,55.293h3.378v4.504h-3.378V55.293z"/>
      <path fill="#FFFFFF" stroke="#4C4C4C" stroke-width="0.25" d="M26.914,58.671h3.378v4.505h-3.378V58.671z"/>
      <path fill="#7F0000" stroke="#4C4C4C" stroke-width="0.25" d="M26.914,58.671h3.378v1.126h-3.378V58.671z"/>
      <path fill="#7F0000" stroke="#4C4C4C" stroke-width="0.25" d="M15.652,55.293h3.378v1.126h-3.378V55.293z"/>
      <path fill="#FFFFFF" stroke="#4C4C4C" stroke-width="0.25" d="M26.914,47.41h3.378v4.504h-3.378V47.41z"/>
      <path fill="#7F0000" stroke="#4C4C4C" stroke-width="0.25" d="M26.914,47.41h3.378v1.126h-3.378V47.41z"/>
      <path fill="#FFFFFF" stroke="#4C4C4C" stroke-width="0.25" d="M52.813,55.293h3.379v4.504h-3.379V55.293z"/>
      <path fill="#7F0000" stroke="#4C4C4C" stroke-width="0.25" d="M52.813,55.293h3.379v1.126h-3.379V55.293z"/>
    </g>
    <g id="Group_Connectors" transform="matrix(1, 0, 0, 1, 1236.05109, 62.756969)">
      <path fill="#666666" stroke="#4C4C4C" stroke-width="0.25" d="M53.264,1.917h0.676v43.692h-0.676V1.917z"/>
      <path fill="#666666" stroke="#4C4C4C" stroke-width="0.25" d="M53.264,45.608h-7.207v-0.45h7.207V45.608z"/>
      <path fill="#666666" stroke="#4C4C4C" stroke-width="0.25" d="M53.264,44.032h-7.207v-0.676h7.207V44.032z"/>
      <path fill="#666666" stroke="#4C4C4C" stroke-width="0.25" d="M53.264,41.78h-7.207v-0.676h7.207V41.78z"/>
      <path fill="#666666" stroke="#4C4C4C" stroke-width="0.25" d="M53.264,2.367H23.085v-0.45h30.179V2.367z"/>
      <path fill="#666666" stroke="#4C4C4C" stroke-width="0.25" d="M23.085,2.367h0.45v2.252h-0.45V2.367z"/>
      <path fill="#666666" stroke="#4C4C4C" stroke-width="0.25" d="M56.191,22.636h-40.54v-0.675h40.54V22.636z"/>
      <path fill="#666666" stroke="#4C4C4C" stroke-width="0.25" d="M55.516,22.636h0.676v6.757h-0.676V22.636z"/>
      <path fill="#666666" stroke="#4C4C4C" stroke-width="0.25" d="M15.652,22.636h0.676v6.757h-0.676V22.636z"/>
      <path fill="#B2B2B2" stroke="#4C4C4C" stroke-width="0.25" d="M27.364,0.002l1.577,1.464l-2.478,2.478l-1.576-1.577L27.364,0.002z"/>
      <path fill="#B2B2B2" stroke="#4C4C4C" stroke-width="0.25" d="M31.418,1.466l1.576-1.464l2.252,2.365L33.67,3.943L31.418,1.466z"/>
    </g>
  </g>
  <g transform="matrix(0.999999, 0, 0, 0.888921, -1061.049982, 169.212228)" style="">
    <g id="group-1" transform="matrix(1, 0, 0, 1, 1236.05109, 62.756969)">
      <path fill="#4C4C4C" stroke="#4C4C4C" stroke-width="0.25" d="M4.392,105.741h62.834v2.253H4.392V105.741z"/>
      <path fill="#4C4C4C" stroke="#4C4C4C" stroke-width="0.25" d="M0,112.498l1.014-1.126H2.14v-11.261H1.014L0,98.984h4.392v13.514H0z   "/>
      <path fill="#4C4C4C" stroke="#4C4C4C" stroke-width="0.25" d="M71.957,98.984l-1.127,1.127h-1.125v11.261h1.125l1.127,1.126h-4.504   V98.984H71.957z"/>
    </g>
    <g id="group-2" transform="matrix(1, 0, 0, 1, 1236.05109, 62.756969)">
      <path fill="#666666" stroke="#4C4C4C" stroke-width="0.25" d="M11.148,89.977h49.547v13.514H11.148V89.977z"/>
      <path fill="#B2B2B2" stroke="#4C4C4C" stroke-width="0.25" d="M4.392,76.463h4.504v27.026H4.392V76.463z"/>
      <path fill="#B2B2B2" stroke="#4C4C4C" stroke-width="0.25" d="M62.948,76.463h4.278v27.026h-4.278V76.463z"/>
      <path fill="#FFFFFF" stroke="#4C4C4C" stroke-width="0.25" d="M15.652,102.363h5.631v-6.758h-5.631h-0.337l-0.451,0.338   l-0.338,0.339l-0.338,0.563l-0.338,0.563l-0.225,0.563l-0.112,0.563l-0.113,0.45l0.113,0.451l0.112,0.563l0.225,0.563l0.338,0.563   l0.338,0.449l0.338,0.338l0.451,0.338L15.652,102.363z"/>
      <path fill="#FFFFFF" stroke="#4C4C4C" stroke-width="0.25" d="M56.191,102.363h-5.631v-6.758h5.631h0.451l0.338,0.338l0.449,0.339   l0.338,0.563l0.226,0.563l0.226,0.563l0.225,0.563v0.448v0.451l-0.225,0.563l-0.226,0.563l-0.226,0.563l-0.338,0.449l-0.449,0.338   l-0.338,0.338L56.191,102.363z"/>
    </g>
    <g id="group-3" transform="matrix(1, 0, 0, 1, 1236.05109, 62.756969)">
      <linearGradient id="gradient-1" gradientUnits="userSpaceOnUse" x1="341.6875" y1="-275.623" x2="346.1914" y2="-275.623" gradientTransform="matrix(1 0 0 -1 -290 -266.5)">
        <stop offset="0" style="stop-color:#999999"/>
        <stop offset="0.5" style="stop-color:#CCCCCC"/>
        <stop offset="1" style="stop-color:#999999"/>
      </linearGradient>
      <path fill="url(#gradient-1)" d="M56.191,6.871h-4.504v4.504h4.504V6.871z"/>
      <path fill="none" stroke="#4C4C4C" stroke-width="0.25" d="M56.191,11.375V6.871h-4.504v4.504H56.191z"/>
      <linearGradient id="gradient-2" gradientUnits="userSpaceOnUse" x1="305.6523" y1="-275.623" x2="310.1572" y2="-275.623" gradientTransform="matrix(1 0 0 -1 -290 -266.5)">
        <stop offset="0" style="stop-color:#999999"/>
        <stop offset="0.5" style="stop-color:#CCCCCC"/>
        <stop offset="1" style="stop-color:#999999"/>
      </linearGradient>
      <path fill="url(#gradient-2)" d="M20.157,6.871h-4.504v4.504h4.504V6.871z"/>
      <path fill="none" stroke="#4C4C4C" stroke-width="0.25" d="M20.157,11.375V6.871h-4.504v4.504H20.157z"/>
      <linearGradient id="gradient-3" gradientUnits="userSpaceOnUse" x1="323.6699" y1="-283.5059" x2="328.1738" y2="-283.5059" gradientTransform="matrix(1 0 0 -1 -290 -266.5)">
        <stop offset="0" style="stop-color:#999999"/>
        <stop offset="0.5" style="stop-color:#CCCCCC"/>
        <stop offset="1" style="stop-color:#999999"/>
      </linearGradient>
      <path fill="url(#gradient-3)" stroke="#4C4C4C" stroke-width="0.25" d="M38.174,6.871H33.67v20.27h4.504V6.871z"/>
      <path fill="#999999" d="M58.443,6.871V4.619H13.4v2.252H58.443z"/>
      <linearGradient id="gradient-4" gradientUnits="userSpaceOnUse" x1="325.9219" y1="-271.0625" x2="325.9219" y2="-273.2832" gradientTransform="matrix(1 0 0 -1 -290 -266.5)">
        <stop offset="0" style="stop-color:#999999"/>
        <stop offset="0.5" style="stop-color:#CCCCCC"/>
        <stop offset="1" style="stop-color:#999999"/>
      </linearGradient>
      <path fill="url(#gradient-4)" stroke="#4C4C4C" stroke-width="0.25" d="M13.4,6.871h45.043V4.619H13.4V6.871"/>
      <linearGradient id="gradient-5" gradientUnits="userSpaceOnUse" x1="325.9219" y1="-362.064" x2="325.9219" y2="-368.8364" gradientTransform="matrix(1 0 0 -1 -290 -266.5)">
        <stop offset="0" style="stop-color:#999999"/>
        <stop offset="0.5" style="stop-color:#CCCCCC"/>
        <stop offset="1" style="stop-color:#999999"/>
      </linearGradient>
      <path fill="url(#gradient-5)" stroke="#4C4C4C" stroke-width="0.25" d="M21.283,95.605h29.277v6.758H21.283V95.605z"/>
      <linearGradient id="gradient-6" gradientUnits="userSpaceOnUse" x1="322.5439" y1="-355.3496" x2="329.3008" y2="-355.3496" gradientTransform="matrix(1 0 0 -1 -290 -266.5)">
        <stop offset="0" style="stop-color:#999999"/>
        <stop offset="0.5" style="stop-color:#CCCCCC"/>
        <stop offset="1" style="stop-color:#999999"/>
      </linearGradient>
      <path fill="url(#gradient-6)" stroke="#4C4C4C" stroke-width="0.25" d="M39.301,95.605V78.715h-6.757v16.893l0.112,0.676l0.226,0.563   l0.225,0.563l0.45,0.45l0.563,0.449l0.563,0.338l0.563,0.227l0.675,0.111l0.677-0.111l0.676-0.227l0.563-0.338l0.451-0.449   l0.449-0.45l0.339-0.563l0.112-0.563L39.301,95.605z"/>
    </g>
    <g id="group-4" transform="matrix(1, 0, 0, 1, 1236.05109, 62.756969)">
      <linearGradient id="gradient-7" gradientUnits="userSpaceOnUse" x1="298.8965" y1="-318.8652" x2="316.9141" y2="-318.8652" gradientTransform="matrix(1 0 0 -1 -290 -266.5)">
        <stop offset="0" style="stop-color:#B2B2B2"/>
        <stop offset="0.5" style="stop-color:#E5E5E5"/>
        <stop offset="1" style="stop-color:#B2B2B2"/>
      </linearGradient>
      <path fill="url(#gradient-7)" d="M26.914,13.628V94.48H8.896V13.628c0,0,2.204-3.378,9.009-3.378   C25.176,10.25,26.914,13.628,26.914,13.628"/>
      <path fill="none" stroke="#4C4C4C" stroke-width="0.25" d="M26.914,13.628V94.48H8.896V13.628c0,0,1.972-3.378,9.043-3.378   C25.442,10.25,26.914,13.628,26.914,13.628z"/>
    </g>
    <g id="group-5" transform="matrix(1, 0, 0, 1, 1236.05109, 62.756969)">
      <linearGradient id="gradient-8" gradientUnits="userSpaceOnUse" x1="334.9316" y1="-318.7939" x2="352.9482" y2="-318.7939" gradientTransform="matrix(1 0 0 -1 -290 -266.5)">
        <stop offset="0" style="stop-color:#B2B2B2"/>
        <stop offset="0.5" style="stop-color:#E5E5E5"/>
        <stop offset="1" style="stop-color:#B2B2B2"/>
      </linearGradient>
      <path fill="url(#gradient-8)" d="M62.948,13.628V94.48H44.932V13.628c0,0,1.692-3.52,8.67-3.52   C61.661,10.108,62.948,13.628,62.948,13.628z"/>
      <path fill="none" stroke="#4C4C4C" stroke-width="0.25" d="M62.948,13.628V94.48H44.932V13.628c0,0,1.668-3.52,8.67-3.52   C61.589,10.108,62.948,13.628,62.948,13.628z"/>
    </g>
    <g id="group-6" transform="matrix(1, 0, 0, 1, 1236.05109, 62.756969)">
      <circle fill="#666666" stroke="#4C4C4C" stroke-width="0.25" cx="31.981" cy="24.325" r="3.941"/>
      <path fill="#FFFFFF" stroke="#4C4C4C" stroke-width="0.25" d="M22.409,27.141h27.026v33.783H22.409V27.141z"/>
      <path fill="#4C4C4C" stroke="#4C4C4C" stroke-width="0.25" d="M25.787,31.645h20.27v21.396h-20.27V31.645z"/>
      <path fill="#4C4C4C" stroke="#4C4C4C" stroke-width="0.25" d="M25.787,57.545h20.27v21.17h-20.27V57.545z"/>
      <path fill="#7F7F7F" stroke="#4C4C4C" stroke-width="0.25" d="M37.049,60.924h6.756v7.656h-6.756V60.924z"/>
    </g>
    <g id="group-7" transform="matrix(1, 0, 0, 1, 1236.05109, 62.756969)">
      <path fill="#FFFFFF" stroke="#4C4C4C" stroke-width="0.25" d="M15.652,55.293h3.378v4.504h-3.378V55.293z"/>
      <path fill="#FFFFFF" stroke="#4C4C4C" stroke-width="0.25" d="M26.914,58.671h3.378v4.505h-3.378V58.671z"/>
      <path fill="#7F0000" stroke="#4C4C4C" stroke-width="0.25" d="M26.914,58.671h3.378v1.126h-3.378V58.671z"/>
      <path fill="#7F0000" stroke="#4C4C4C" stroke-width="0.25" d="M15.652,55.293h3.378v1.126h-3.378V55.293z"/>
      <path fill="#FFFFFF" stroke="#4C4C4C" stroke-width="0.25" d="M26.914,47.41h3.378v4.504h-3.378V47.41z"/>
      <path fill="#7F0000" stroke="#4C4C4C" stroke-width="0.25" d="M26.914,47.41h3.378v1.126h-3.378V47.41z"/>
      <path fill="#FFFFFF" stroke="#4C4C4C" stroke-width="0.25" d="M52.813,55.293h3.379v4.504h-3.379V55.293z"/>
      <path fill="#7F0000" stroke="#4C4C4C" stroke-width="0.25" d="M52.813,55.293h3.379v1.126h-3.379V55.293z"/>
    </g>
    <g id="group-8" transform="matrix(1, 0, 0, 1, 1236.05109, 62.756969)">
      <path fill="#666666" stroke="#4C4C4C" stroke-width="0.25" d="M53.264,1.917h0.676v43.692h-0.676V1.917z"/>
      <path fill="#666666" stroke="#4C4C4C" stroke-width="0.25" d="M53.264,45.608h-7.207v-0.45h7.207V45.608z"/>
      <path fill="#666666" stroke="#4C4C4C" stroke-width="0.25" d="M53.264,44.032h-7.207v-0.676h7.207V44.032z"/>
      <path fill="#666666" stroke="#4C4C4C" stroke-width="0.25" d="M53.264,41.78h-7.207v-0.676h7.207V41.78z"/>
      <path fill="#666666" stroke="#4C4C4C" stroke-width="0.25" d="M53.264,2.367H23.085v-0.45h30.179V2.367z"/>
      <path fill="#666666" stroke="#4C4C4C" stroke-width="0.25" d="M23.085,2.367h0.45v2.252h-0.45V2.367z"/>
      <path fill="#666666" stroke="#4C4C4C" stroke-width="0.25" d="M56.191,22.636h-40.54v-0.675h40.54V22.636z"/>
      <path fill="#666666" stroke="#4C4C4C" stroke-width="0.25" d="M55.516,22.636h0.676v6.757h-0.676V22.636z"/>
      <path fill="#666666" stroke="#4C4C4C" stroke-width="0.25" d="M15.652,22.636h0.676v6.757h-0.676V22.636z"/>
      <path fill="#B2B2B2" stroke="#4C4C4C" stroke-width="0.25" d="M27.364,0.002l1.577,1.464l-2.478,2.478l-1.576-1.577L27.364,0.002z"/>
      <path fill="#B2B2B2" stroke="#4C4C4C" stroke-width="0.25" d="M31.418,1.466l1.576-1.464l2.252,2.365L33.67,3.943L31.418,1.466z"/>
    </g>
  </g>
  <g transform="matrix(0.999999, 0, 0, 0.888921, -1061.04986, 294.212174)" style="">
    <g id="group-9" transform="matrix(1, 0, 0, 1, 1236.05109, 62.756969)">
      <path fill="#4C4C4C" stroke="#4C4C4C" stroke-width="0.25" d="M4.392,105.741h62.834v2.253H4.392V105.741z"/>
      <path fill="#4C4C4C" stroke="#4C4C4C" stroke-width="0.25" d="M0,112.498l1.014-1.126H2.14v-11.261H1.014L0,98.984h4.392v13.514H0z   "/>
      <path fill="#4C4C4C" stroke="#4C4C4C" stroke-width="0.25" d="M71.957,98.984l-1.127,1.127h-1.125v11.261h1.125l1.127,1.126h-4.504   V98.984H71.957z"/>
    </g>
    <g id="group-10" transform="matrix(1, 0, 0, 1, 1236.05109, 62.756969)">
      <path fill="#666666" stroke="#4C4C4C" stroke-width="0.25" d="M11.148,89.977h49.547v13.514H11.148V89.977z"/>
      <path fill="#B2B2B2" stroke="#4C4C4C" stroke-width="0.25" d="M4.392,76.463h4.504v27.026H4.392V76.463z"/>
      <path fill="#B2B2B2" stroke="#4C4C4C" stroke-width="0.25" d="M62.948,76.463h4.278v27.026h-4.278V76.463z"/>
      <path fill="#FFFFFF" stroke="#4C4C4C" stroke-width="0.25" d="M15.652,102.363h5.631v-6.758h-5.631h-0.337l-0.451,0.338   l-0.338,0.339l-0.338,0.563l-0.338,0.563l-0.225,0.563l-0.112,0.563l-0.113,0.45l0.113,0.451l0.112,0.563l0.225,0.563l0.338,0.563   l0.338,0.449l0.338,0.338l0.451,0.338L15.652,102.363z"/>
      <path fill="#FFFFFF" stroke="#4C4C4C" stroke-width="0.25" d="M56.191,102.363h-5.631v-6.758h5.631h0.451l0.338,0.338l0.449,0.339   l0.338,0.563l0.226,0.563l0.226,0.563l0.225,0.563v0.448v0.451l-0.225,0.563l-0.226,0.563l-0.226,0.563l-0.338,0.449l-0.449,0.338   l-0.338,0.338L56.191,102.363z"/>
    </g>
    <g id="group-11" transform="matrix(1, 0, 0, 1, 1236.05109, 62.756969)">
      <linearGradient id="gradient-9" gradientUnits="userSpaceOnUse" x1="341.6875" y1="-275.623" x2="346.1914" y2="-275.623" gradientTransform="matrix(1 0 0 -1 -290 -266.5)">
        <stop offset="0" style="stop-color:#999999"/>
        <stop offset="0.5" style="stop-color:#CCCCCC"/>
        <stop offset="1" style="stop-color:#999999"/>
      </linearGradient>
      <path fill="url(#gradient-9)" d="M56.191,6.871h-4.504v4.504h4.504V6.871z"/>
      <path fill="none" stroke="#4C4C4C" stroke-width="0.25" d="M56.191,11.375V6.871h-4.504v4.504H56.191z"/>
      <linearGradient id="gradient-10" gradientUnits="userSpaceOnUse" x1="305.6523" y1="-275.623" x2="310.1572" y2="-275.623" gradientTransform="matrix(1 0 0 -1 -290 -266.5)">
        <stop offset="0" style="stop-color:#999999"/>
        <stop offset="0.5" style="stop-color:#CCCCCC"/>
        <stop offset="1" style="stop-color:#999999"/>
      </linearGradient>
      <path fill="url(#gradient-10)" d="M20.157,6.871h-4.504v4.504h4.504V6.871z"/>
      <path fill="none" stroke="#4C4C4C" stroke-width="0.25" d="M20.157,11.375V6.871h-4.504v4.504H20.157z"/>
      <linearGradient id="gradient-11" gradientUnits="userSpaceOnUse" x1="323.6699" y1="-283.5059" x2="328.1738" y2="-283.5059" gradientTransform="matrix(1 0 0 -1 -290 -266.5)">
        <stop offset="0" style="stop-color:#999999"/>
        <stop offset="0.5" style="stop-color:#CCCCCC"/>
        <stop offset="1" style="stop-color:#999999"/>
      </linearGradient>
      <path fill="url(#gradient-11)" stroke="#4C4C4C" stroke-width="0.25" d="M38.174,6.871H33.67v20.27h4.504V6.871z"/>
      <path fill="#999999" d="M58.443,6.871V4.619H13.4v2.252H58.443z"/>
      <linearGradient id="gradient-12" gradientUnits="userSpaceOnUse" x1="325.9219" y1="-271.0625" x2="325.9219" y2="-273.2832" gradientTransform="matrix(1 0 0 -1 -290 -266.5)">
        <stop offset="0" style="stop-color:#999999"/>
        <stop offset="0.5" style="stop-color:#CCCCCC"/>
        <stop offset="1" style="stop-color:#999999"/>
      </linearGradient>
      <path fill="url(#gradient-12)" stroke="#4C4C4C" stroke-width="0.25" d="M13.4,6.871h45.043V4.619H13.4V6.871"/>
      <linearGradient id="gradient-13" gradientUnits="userSpaceOnUse" x1="325.9219" y1="-362.064" x2="325.9219" y2="-368.8364" gradientTransform="matrix(1 0 0 -1 -290 -266.5)">
        <stop offset="0" style="stop-color:#999999"/>
        <stop offset="0.5" style="stop-color:#CCCCCC"/>
        <stop offset="1" style="stop-color:#999999"/>
      </linearGradient>
      <path fill="url(#gradient-13)" stroke="#4C4C4C" stroke-width="0.25" d="M21.283,95.605h29.277v6.758H21.283V95.605z"/>
      <linearGradient id="gradient-14" gradientUnits="userSpaceOnUse" x1="322.5439" y1="-355.3496" x2="329.3008" y2="-355.3496" gradientTransform="matrix(1 0 0 -1 -290 -266.5)">
        <stop offset="0" style="stop-color:#999999"/>
        <stop offset="0.5" style="stop-color:#CCCCCC"/>
        <stop offset="1" style="stop-color:#999999"/>
      </linearGradient>
      <path fill="url(#gradient-14)" stroke="#4C4C4C" stroke-width="0.25" d="M39.301,95.605V78.715h-6.757v16.893l0.112,0.676l0.226,0.563   l0.225,0.563l0.45,0.45l0.563,0.449l0.563,0.338l0.563,0.227l0.675,0.111l0.677-0.111l0.676-0.227l0.563-0.338l0.451-0.449   l0.449-0.45l0.339-0.563l0.112-0.563L39.301,95.605z"/>
    </g>
    <g id="group-12" transform="matrix(1, 0, 0, 1, 1236.05109, 62.756969)">
      <linearGradient id="gradient-15" gradientUnits="userSpaceOnUse" x1="298.8965" y1="-318.8652" x2="316.9141" y2="-318.8652" gradientTransform="matrix(1 0 0 -1 -290 -266.5)">
        <stop offset="0" style="stop-color:#B2B2B2"/>
        <stop offset="0.5" style="stop-color:#E5E5E5"/>
        <stop offset="1" style="stop-color:#B2B2B2"/>
      </linearGradient>
      <path fill="url(#gradient-15)" d="M26.914,13.628V94.48H8.896V13.628c0,0,2.204-3.378,9.009-3.378   C25.176,10.25,26.914,13.628,26.914,13.628"/>
      <path fill="none" stroke="#4C4C4C" stroke-width="0.25" d="M26.914,13.628V94.48H8.896V13.628c0,0,1.972-3.378,9.043-3.378   C25.442,10.25,26.914,13.628,26.914,13.628z"/>
    </g>
    <g id="group-13" transform="matrix(1, 0, 0, 1, 1236.05109, 62.756969)">
      <linearGradient id="gradient-16" gradientUnits="userSpaceOnUse" x1="334.9316" y1="-318.7939" x2="352.9482" y2="-318.7939" gradientTransform="matrix(1 0 0 -1 -290 -266.5)">
        <stop offset="0" style="stop-color:#B2B2B2"/>
        <stop offset="0.5" style="stop-color:#E5E5E5"/>
        <stop offset="1" style="stop-color:#B2B2B2"/>
      </linearGradient>
      <path fill="url(#gradient-16)" d="M62.948,13.628V94.48H44.932V13.628c0,0,1.692-3.52,8.67-3.52   C61.661,10.108,62.948,13.628,62.948,13.628z"/>
      <path fill="none" stroke="#4C4C4C" stroke-width="0.25" d="M62.948,13.628V94.48H44.932V13.628c0,0,1.668-3.52,8.67-3.52   C61.589,10.108,62.948,13.628,62.948,13.628z"/>
    </g>
    <g id="group-14" transform="matrix(1, 0, 0, 1, 1236.05109, 62.756969)">
      <circle fill="#666666" stroke="#4C4C4C" stroke-width="0.25" cx="31.981" cy="24.325" r="3.941"/>
      <path fill="#FFFFFF" stroke="#4C4C4C" stroke-width="0.25" d="M22.409,27.141h27.026v33.783H22.409V27.141z"/>
      <path fill="#4C4C4C" stroke="#4C4C4C" stroke-width="0.25" d="M25.787,31.645h20.27v21.396h-20.27V31.645z"/>
      <path fill="#4C4C4C" stroke="#4C4C4C" stroke-width="0.25" d="M25.787,57.545h20.27v21.17h-20.27V57.545z"/>
      <path fill="#7F7F7F" stroke="#4C4C4C" stroke-width="0.25" d="M37.049,60.924h6.756v7.656h-6.756V60.924z"/>
    </g>
    <g id="group-15" transform="matrix(1, 0, 0, 1, 1236.05109, 62.756969)">
      <path fill="#FFFFFF" stroke="#4C4C4C" stroke-width="0.25" d="M15.652,55.293h3.378v4.504h-3.378V55.293z"/>
      <path fill="#FFFFFF" stroke="#4C4C4C" stroke-width="0.25" d="M26.914,58.671h3.378v4.505h-3.378V58.671z"/>
      <path fill="#7F0000" stroke="#4C4C4C" stroke-width="0.25" d="M26.914,58.671h3.378v1.126h-3.378V58.671z"/>
      <path fill="#7F0000" stroke="#4C4C4C" stroke-width="0.25" d="M15.652,55.293h3.378v1.126h-3.378V55.293z"/>
      <path fill="#FFFFFF" stroke="#4C4C4C" stroke-width="0.25" d="M26.914,47.41h3.378v4.504h-3.378V47.41z"/>
      <path fill="#7F0000" stroke="#4C4C4C" stroke-width="0.25" d="M26.914,47.41h3.378v1.126h-3.378V47.41z"/>
      <path fill="#FFFFFF" stroke="#4C4C4C" stroke-width="0.25" d="M52.813,55.293h3.379v4.504h-3.379V55.293z"/>
      <path fill="#7F0000" stroke="#4C4C4C" stroke-width="0.25" d="M52.813,55.293h3.379v1.126h-3.379V55.293z"/>
    </g>
    <g id="group-16" transform="matrix(1, 0, 0, 1, 1236.05109, 62.756969)">
      <path fill="#666666" stroke="#4C4C4C" stroke-width="0.25" d="M53.264,1.917h0.676v43.692h-0.676V1.917z"/>
      <path fill="#666666" stroke="#4C4C4C" stroke-width="0.25" d="M53.264,45.608h-7.207v-0.45h7.207V45.608z"/>
      <path fill="#666666" stroke="#4C4C4C" stroke-width="0.25" d="M53.264,44.032h-7.207v-0.676h7.207V44.032z"/>
      <path fill="#666666" stroke="#4C4C4C" stroke-width="0.25" d="M53.264,41.78h-7.207v-0.676h7.207V41.78z"/>
      <path fill="#666666" stroke="#4C4C4C" stroke-width="0.25" d="M53.264,2.367H23.085v-0.45h30.179V2.367z"/>
      <path fill="#666666" stroke="#4C4C4C" stroke-width="0.25" d="M23.085,2.367h0.45v2.252h-0.45V2.367z"/>
      <path fill="#666666" stroke="#4C4C4C" stroke-width="0.25" d="M56.191,22.636h-40.54v-0.675h40.54V22.636z"/>
      <path fill="#666666" stroke="#4C4C4C" stroke-width="0.25" d="M55.516,22.636h0.676v6.757h-0.676V22.636z"/>
      <path fill="#666666" stroke="#4C4C4C" stroke-width="0.25" d="M15.652,22.636h0.676v6.757h-0.676V22.636z"/>
      <path fill="#B2B2B2" stroke="#4C4C4C" stroke-width="0.25" d="M27.364,0.002l1.577,1.464l-2.478,2.478l-1.576-1.577L27.364,0.002z"/>
      <path fill="#B2B2B2" stroke="#4C4C4C" stroke-width="0.25" d="M31.418,1.466l1.576-1.464l2.252,2.365L33.67,3.943L31.418,1.466z"/>
    </g>
  </g>
</svg>